  0
SECTION
  2
HEADER
  9
$ACADVER
  1
AC1014
  9
$HANDSEED
  5
FFFF
  9
$MEASUREMENT
 70
     1
  0
ENDSEC
  0
SECTION
  2
TABLES
  0
TABLE
  2
VPORT
  5
8
330
0
100
AcDbSymbolTable
 70
     4
  0
VPORT
  5
2E
330
8
100
AcDbSymbolTableRecord
100
AcDbViewportTableRecord
  2
*ACTIVE
 70
     0
 10
0.0
 20
0.0
 11
1.0
 21
1.0
 12
210.0
 22
148.5
 13
0.0
 23
0.0
 14
10.0
 24
10.0
 15
10.0
 25
10.0
 16
0.0
 26
0.0
 36
1.0
 17
0.0
 27
0.0
 37
0.0
 40
341.0
 41
1.24
 42
50.0
 43
0.0
 44
0.0
 50
0.0
 51
0.0
 71
     0
 72
   100
 73
     1
 74
     3
 75
     0
 76
     0
 77
     0
 78
     0
  0
ENDTAB
  0
TABLE
  2
LTYPE
  5
5
330
0
100
AcDbSymbolTable
 70
     1
  0
LTYPE
  5
14
330
5
100
AcDbSymbolTableRecord
100
AcDbLinetypeTableRecord
  2
BYBLOCK
 70
     0
  3

 72
    65
 73
     0
 40
0.0
  0
LTYPE
  5
15
330
5
100
AcDbSymbolTableRecord
100
AcDbLinetypeTableRecord
  2
BYLAYER
 70
     0
  3

 72
    65
 73
     0
 40
0.0
  0
LTYPE
  5
16
330
5
100
AcDbSymbolTableRecord
100
AcDbLinetypeTableRecord
  2
CONTINUOUS
 70
     0
  3
Solid line
 72
    65
 73
     0
 40
0.0
  0
ENDTAB
  0
TABLE
  2
LAYER
  5
2
100
AcDbSymbolTable
 70
2
  0
LAYER
  5
50
100
AcDbSymbolTableRecord
100
AcDbLayerTableRecord
  2
0
 70
0
  6
CONTINUOUS
  0
LAYER
  5
51
100
AcDbSymbolTableRecord
100
AcDbLayerTableRecord
  2
Layer_1
 70
0
  6
CONTINUOUS
  0
ENDTAB
  0
TABLE
  2
STYLE
  5
3
330
0
100
AcDbSymbolTable
 70
     1
  0
STYLE
  5
11
330
3
100
AcDbSymbolTableRecord
100
AcDbTextStyleTableRecord
  2
STANDARD
 70
     0
 40
0.0
 41
1.0
 50
0.0
 71
     0
 42
2.5
  3
txt
  4

  0
ENDTAB
  0
TABLE
  2
VIEW
  5
6
330
0
100
AcDbSymbolTable
 70
     0
  0
ENDTAB
  0
TABLE
  2
UCS
  5
7
330
0
100
AcDbSymbolTable
 70
     0
  0
ENDTAB
  0
TABLE
  2
APPID
  5
9
330
0
100
AcDbSymbolTable
 70
     2
  0
APPID
  5
12
330
9
100
AcDbSymbolTableRecord
100
AcDbRegAppTableRecord
  2
ACAD
 70
     0
  0
ENDTAB
  0
TABLE
  2
DIMSTYLE
  5
A
330
0
100
AcDbSymbolTable
 70
     1
  0
DIMSTYLE
105
27
330
A
100
AcDbSymbolTableRecord
100
AcDbDimStyleTableRecord
  2
ISO-25
 70
     0
  3

  4

  5

  6

  7

 40
1.0
 41
2.5
 42
0.625
 43
3.75
 44
1.25
 45
0.0
 46
0.0
 47
0.0
 48
0.0
140
2.5
141
2.5
142
0.0
143
0.03937007874016
144
1.0
145
0.0
146
1.0
147
0.625
 71
     0
 72
     0
 73
     0
 74
     0
 75
     0
 76
     0
 77
     1
 78
     8
170
     0
171
     3
172
     1
173
     0
174
     0
175
     0
176
     0
177
     0
178
     0
270
     2
271
     2
272
     2
273
     2
274
     3
340
11
275
     0
280
     0
281
     0
282
     0
283
     0
284
     8
285
     0
286
     0
287
     3
288
     0
  0
ENDTAB
  0
TABLE
  2
BLOCK_RECORD
  5
1
330
0
100
AcDbSymbolTable
 70
     1
  0
BLOCK_RECORD
  5
1F
330
1
100
AcDbSymbolTableRecord
100
AcDbBlockTableRecord
  2
*MODEL_SPACE
  0
BLOCK_RECORD
  5
1B
330
1
100
AcDbSymbolTableRecord
100
AcDbBlockTableRecord
  2
*PAPER_SPACE
  0
ENDTAB
  0
ENDSEC
  0
SECTION
  2
BLOCKS
  0
BLOCK
  5
20
330
1F
100
AcDbEntity
  8
0
100
AcDbBlockBegin
  2
*MODEL_SPACE
 70
     0
 10
0.0
 20
0.0
 30
0.0
  3
*MODEL_SPACE
  1

  0
ENDBLK
  5
21
330
1F
100
AcDbEntity
  8
0
100
AcDbBlockEnd
  0
BLOCK
  5
1C
330
1B
100
AcDbEntity
 67
     1
  8
0
100
AcDbBlockBegin
  2
*PAPER_SPACE
  1

  0
ENDBLK
  5
1D
330
1B
100
AcDbEntity
 67
     1
  8
0
100
AcDbBlockEnd
  0
ENDSEC
  0
SECTION
  2
ENTITIES
  0
SPLINE
  5
100
100
AcDbEntity
  8
Layer_1
 62
1
100
AcDbSpline
 70
8
 71
3
 72
8
 73
4
 74
0
 40
0
 40
0
 40
0
 40
0
 40
1
 40
1
 40
1
 40
1
 10
185.531912
 20
397.569562
 30
0.0
 10
171.648456
 20
395.787562
 30
0.0
 10
160.644088
 20
384.776410
 30
0.0
 10
158.856912
 20
370.894562
 30
0.0
  0
LWPOLYLINE
  5
101
100
AcDbEntity
  8
Layer_1
 62
1
100
AcDbPolyline
 90
2
 70
1
 10
185.531912
 20
402.894562
 30
0.0
 10
185.531912
 20
397.569562
 30
0.0
  0
SPLINE
  5
102
100
AcDbEntity
  8
Layer_1
 62
1
100
AcDbSpline
 70
8
 71
3
 72
8
 73
4
 74
0
 40
0
 40
0
 40
0
 40
0
 40
1
 40
1
 40
1
 40
1
 10
158.856912
 20
362.944562
 30
0.0
 10
160.644016
 20
349.063258
 30
0.0
 10
171.649208
 20
338.077202
 30
0.0
 10
185.531912
 20
336.294562
 30
0.0
  0
LWPOLYLINE
  5
103
100
AcDbEntity
  8
Layer_1
 62
1
100
AcDbPolyline
 90
4
 70
1
 10
158.856912
 20
370.894562
 30
0.0
 10
153.531912
 20
370.894562
 30
0.0
 10
153.531912
 20
362.944562
 30
0.0
 10
158.856912
 20
362.944562
 30
0.0
  0
SPLINE
  5
104
100
AcDbEntity
  8
Layer_1
 62
1
100
AcDbSpline
 70
8
 71
3
 72
8
 73
4
 74
0
 40
0
 40
0
 40
0
 40
0
 40
1
 40
1
 40
1
 40
1
 10
193.456912
 20
336.294562
 30
0.0
 10
207.345728
 20
338.072034
 30
0.0
 10
218.344248
 20
349.058938
 30
0.0
 10
220.131912
 20
362.944562
 30
0.0
  0
LWPOLYLINE
  5
105
100
AcDbEntity
  8
Layer_1
 62
1
100
AcDbPolyline
 90
4
 70
1
 10
185.531912
 20
336.294562
 30
0.0
 10
185.531912
 20
330.944562
 30
0.0
 10
193.456912
 20
330.944562
 30
0.0
 10
193.456912
 20
336.294562
 30
0.0
  0
SPLINE
  5
106
100
AcDbEntity
  8
Layer_1
 62
1
100
AcDbSpline
 70
8
 71
3
 72
8
 73
4
 74
0
 40
0
 40
0
 40
0
 40
0
 40
1
 40
1
 40
1
 40
1
 10
220.131912
 20
370.894562
 30
0.0
 10
218.344184
 20
384.780690
 30
0.0
 10
207.346432
 20
395.792690
 30
0.0
 10
193.456912
 20
397.569562
 30
0.0
  0
LWPOLYLINE
  5
107
100
AcDbEntity
  8
Layer_1
 62
1
100
AcDbPolyline
 90
4
 70
1
 10
220.131912
 20
362.944562
 30
0.0
 10
225.456912
 20
362.944562
 30
0.0
 10
225.456912
 20
370.894562
 30
0.0
 10
220.131912
 20
370.894562
 30
0.0
  0
LWPOLYLINE
  5
108
100
AcDbEntity
  8
Layer_1
 62
1
100
AcDbPolyline
 90
4
 70
1
 10
193.456912
 20
397.569562
 30
0.0
 10
193.456912
 20
402.894562
 30
0.0
 10
185.531912
 20
402.894562
 30
0.0
 10
185.531912
 20
402.894562
 30
0.0
  0
SPLINE
  5
109
100
AcDbEntity
  8
Layer_1
 62
3
100
AcDbSpline
 70
8
 71
3
 72
8
 73
4
 74
0
 40
0
 40
0
 40
0
 40
0
 40
1
 40
1
 40
1
 40
1
 10
231.730633
 20
366.919564
 30
0.0
 10
231.730633
 20
343.593141
 30
0.0
 10
212.820835
 20
324.683343
 30
0.0
 10
189.494412
 20
324.683343
 30
0.0
  0
SPLINE
  5
10a
100
AcDbEntity
  8
Layer_1
 62
3
100
AcDbSpline
 70
8
 71
3
 72
8
 73
4
 74
0
 40
0
 40
0
 40
0
 40
0
 40
1
 40
1
 40
1
 40
1
 10
189.494412
 20
324.683343
 30
0.0
 10
166.167997
 20
324.683343
 30
0.0
 10
147.258192
 20
343.593141
 30
0.0
 10
147.258192
 20
366.919564
 30
0.0
  0
SPLINE
  5
10b
100
AcDbEntity
  8
Layer_1
 62
3
100
AcDbSpline
 70
8
 71
3
 72
8
 73
4
 74
0
 40
0
 40
0
 40
0
 40
0
 40
1
 40
1
 40
1
 40
1
 10
147.258192
 20
366.919564
 30
0.0
 10
147.258192
 20
390.245987
 30
0.0
 10
166.167997
 20
409.155784
 30
0.0
 10
189.494412
 20
409.155784
 30
0.0
  0
SPLINE
  5
10c
100
AcDbEntity
  8
Layer_1
 62
3
100
AcDbSpline
 70
8
 71
3
 72
8
 73
4
 74
0
 40
0
 40
0
 40
0
 40
0
 40
1
 40
1
 40
1
 40
1
 10
189.494412
 20
409.155784
 30
0.0
 10
212.820835
 20
409.155784
 30
0.0
 10
231.730633
 20
390.245987
 30
0.0
 10
231.730633
 20
366.919564
 30
0.0
  0
LWPOLYLINE
  5
10d
100
AcDbEntity
  8
Layer_1
 62
3
100
AcDbPolyline
 90
5
 70
1
 10
139.853808
 20
457.528450
 30
0.0
 10
239.135000
 20
457.528450
 30
0.0
 10
239.135000
 20
310.693810
 30
0.0
 10
139.853808
 20
310.693810
 30
0.0
 10
139.853808
 20
457.528450
 30
0.0
  0
LWPOLYLINE
  5
10e
100
AcDbEntity
  8
Layer_1
 62
3
100
AcDbPolyline
 90
2
 70
1
 10
231.730633
 20
366.919564
 30
0.0
 10
231.730633
 20
366.919564
 30
0.0
  0
LWPOLYLINE
  5
10f
100
AcDbEntity
  8
Layer_1
 62
1
100
AcDbPolyline
 90
5
 70
1
 10
31.958570
 20
797.903894
 30
0.0
 10
571.149490
 20
797.903894
 30
0.0
 10
571.149490
 20
231.541686
 30
0.0
 10
31.958570
 20
231.541686
 30
0.0
 10
31.958570
 20
797.903894
 30
0.0
  0
SPLINE
  5
110
100
AcDbEntity
  8
Layer_1
 62
1
100
AcDbSpline
 70
8
 71
3
 72
8
 73
4
 74
0
 40
0
 40
0
 40
0
 40
0
 40
1
 40
1
 40
1
 40
1
 10
185.531912
 20
649.692866
 30
0.0
 10
171.648456
 20
647.910866
 30
0.0
 10
160.644088
 20
636.899714
 30
0.0
 10
158.856912
 20
623.017866
 30
0.0
  0
LWPOLYLINE
  5
111
100
AcDbEntity
  8
Layer_1
 62
1
100
AcDbPolyline
 90
2
 70
1
 10
185.531912
 20
655.017866
 30
0.0
 10
185.531912
 20
649.692866
 30
0.0
  0
SPLINE
  5
112
100
AcDbEntity
  8
Layer_1
 62
1
100
AcDbSpline
 70
8
 71
3
 72
8
 73
4
 74
0
 40
0
 40
0
 40
0
 40
0
 40
1
 40
1
 40
1
 40
1
 10
158.856912
 20
615.067866
 30
0.0
 10
160.644016
 20
601.186562
 30
0.0
 10
171.649208
 20
590.200506
 30
0.0
 10
185.531912
 20
588.417866
 30
0.0
  0
LWPOLYLINE
  5
113
100
AcDbEntity
  8
Layer_1
 62
1
100
AcDbPolyline
 90
4
 70
1
 10
158.856912
 20
623.017866
 30
0.0
 10
153.531912
 20
623.017866
 30
0.0
 10
153.531912
 20
615.067866
 30
0.0
 10
158.856912
 20
615.067866
 30
0.0
  0
SPLINE
  5
114
100
AcDbEntity
  8
Layer_1
 62
1
100
AcDbSpline
 70
8
 71
3
 72
8
 73
4
 74
0
 40
0
 40
0
 40
0
 40
0
 40
1
 40
1
 40
1
 40
1
 10
193.456912
 20
588.417866
 30
0.0
 10
207.345728
 20
590.195338
 30
0.0
 10
218.344248
 20
601.182242
 30
0.0
 10
220.131912
 20
615.067866
 30
0.0
  0
LWPOLYLINE
  5
115
100
AcDbEntity
  8
Layer_1
 62
1
100
AcDbPolyline
 90
4
 70
1
 10
185.531912
 20
588.417866
 30
0.0
 10
185.531912
 20
583.067866
 30
0.0
 10
193.456912
 20
583.067866
 30
0.0
 10
193.456912
 20
588.417866
 30
0.0
  0
SPLINE
  5
116
100
AcDbEntity
  8
Layer_1
 62
1
100
AcDbSpline
 70
8
 71
3
 72
8
 73
4
 74
0
 40
0
 40
0
 40
0
 40
0
 40
1
 40
1
 40
1
 40
1
 10
220.131912
 20
623.017866
 30
0.0
 10
218.344184
 20
636.903994
 30
0.0
 10
207.346432
 20
647.915994
 30
0.0
 10
193.456912
 20
649.692866
 30
0.0
  0
LWPOLYLINE
  5
117
100
AcDbEntity
  8
Layer_1
 62
1
100
AcDbPolyline
 90
4
 70
1
 10
220.131912
 20
615.067866
 30
0.0
 10
225.456912
 20
615.067866
 30
0.0
 10
225.456912
 20
623.017866
 30
0.0
 10
220.131912
 20
623.017866
 30
0.0
  0
SPLINE
  5
118
100
AcDbEntity
  8
Layer_1
 62
3
100
AcDbSpline
 70
8
 71
3
 72
8
 73
4
 74
0
 40
0
 40
0
 40
0
 40
0
 40
1
 40
1
 40
1
 40
1
 10
231.730633
 20
619.042868
 30
0.0
 10
231.730633
 20
595.716445
 30
0.0
 10
212.820835
 20
576.806647
 30
0.0
 10
189.494412
 20
576.806647
 30
0.0
  0
SPLINE
  5
119
100
AcDbEntity
  8
Layer_1
 62
3
100
AcDbSpline
 70
8
 71
3
 72
8
 73
4
 74
0
 40
0
 40
0
 40
0
 40
0
 40
1
 40
1
 40
1
 40
1
 10
189.494412
 20
576.806647
 30
0.0
 10
166.167997
 20
576.806647
 30
0.0
 10
147.258192
 20
595.716445
 30
0.0
 10
147.258192
 20
619.042868
 30
0.0
  0
SPLINE
  5
11a
100
AcDbEntity
  8
Layer_1
 62
3
100
AcDbSpline
 70
8
 71
3
 72
8
 73
4
 74
0
 40
0
 40
0
 40
0
 40
0
 40
1
 40
1
 40
1
 40
1
 10
147.258192
 20
619.042868
 30
0.0
 10
147.258192
 20
642.369291
 30
0.0
 10
166.167997
 20
661.279088
 30
0.0
 10
189.494412
 20
661.279088
 30
0.0
  0
SPLINE
  5
11b
100
AcDbEntity
  8
Layer_1
 62
3
100
AcDbSpline
 70
8
 71
3
 72
8
 73
4
 74
0
 40
0
 40
0
 40
0
 40
0
 40
1
 40
1
 40
1
 40
1
 10
189.494412
 20
661.279088
 30
0.0
 10
212.820835
 20
661.279088
 30
0.0
 10
231.730633
 20
642.369291
 30
0.0
 10
231.730633
 20
619.042868
 30
0.0
  0
LWPOLYLINE
  5
11c
100
AcDbEntity
  8
Layer_1
 62
1
100
AcDbPolyline
 90
4
 70
1
 10
193.456912
 20
649.692866
 30
0.0
 10
193.456912
 20
655.017866
 30
0.0
 10
185.531912
 20
655.017866
 30
0.0
 10
185.531912
 20
655.017866
 30
0.0
  0
LWPOLYLINE
  5
11d
100
AcDbEntity
  8
Layer_1
 62
3
100
AcDbPolyline
 90
2
 70
1
 10
231.730633
 20
619.042868
 30
0.0
 10
231.730633
 20
619.042868
 30
0.0
  0
SPLINE
  5
11e
100
AcDbEntity
  8
Layer_1
 62
1
100
AcDbSpline
 70
8
 71
3
 72
8
 73
4
 74
0
 40
0
 40
0
 40
0
 40
0
 40
1
 40
1
 40
1
 40
1
 10
379.270324
 20
402.536334
 30
0.0
 10
379.270324
 20
396.822145
 30
0.0
 10
374.638059
 20
392.189877
 30
0.0
 10
368.923867
 20
392.189877
 30
0.0
  0
SPLINE
  5
11f
100
AcDbEntity
  8
Layer_1
 62
1
100
AcDbSpline
 70
8
 71
3
 72
8
 73
4
 74
0
 40
0
 40
0
 40
0
 40
0
 40
1
 40
1
 40
1
 40
1
 10
368.923867
 20
392.189877
 30
0.0
 10
363.209678
 20
392.189877
 30
0.0
 10
358.577410
 20
396.822145
 30
0.0
 10
358.577410
 20
402.536334
 30
0.0
  0
SPLINE
  5
120
100
AcDbEntity
  8
Layer_1
 62
1
100
AcDbSpline
 70
8
 71
3
 72
8
 73
4
 74
0
 40
0
 40
0
 40
0
 40
0
 40
1
 40
1
 40
1
 40
1
 10
358.577410
 20
402.536334
 30
0.0
 10
358.577410
 20
408.250526
 30
0.0
 10
363.209678
 20
412.882791
 30
0.0
 10
368.923867
 20
412.882791
 30
0.0
  0
SPLINE
  5
121
100
AcDbEntity
  8
Layer_1
 62
1
100
AcDbSpline
 70
8
 71
3
 72
8
 73
4
 74
0
 40
0
 40
0
 40
0
 40
0
 40
1
 40
1
 40
1
 40
1
 10
368.923867
 20
412.882791
 30
0.0
 10
374.638059
 20
412.882791
 30
0.0
 10
379.270324
 20
408.250526
 30
0.0
 10
379.270324
 20
402.536334
 30
0.0
  0
LWPOLYLINE
  5
122
100
AcDbEntity
  8
Layer_1
 62
3
100
AcDbPolyline
 90
5
 70
1
 10
277.081352
 20
494.378834
 30
0.0
 10
460.766384
 20
494.378834
 30
0.0
 10
460.766384
 20
310.693802
 30
0.0
 10
277.081352
 20
310.693802
 30
0.0
 10
277.081352
 20
494.378834
 30
0.0
  0
SPLINE
  5
123
100
AcDbEntity
  8
Layer_1
 62
1
100
AcDbSpline
 70
8
 71
3
 72
8
 73
4
 74
0
 40
0
 40
0
 40
0
 40
0
 40
1
 40
1
 40
1
 40
1
 10
323.286071
 20
351.512711
 30
0.0
 10
323.286071
 20
348.538200
 30
0.0
 10
320.874754
 20
346.126884
 30
0.0
 10
317.900244
 20
346.126884
 30
0.0
  0
SPLINE
  5
124
100
AcDbEntity
  8
Layer_1
 62
1
100
AcDbSpline
 70
8
 71
3
 72
8
 73
4
 74
0
 40
0
 40
0
 40
0
 40
0
 40
1
 40
1
 40
1
 40
1
 10
317.900244
 20
346.126884
 30
0.0
 10
314.925735
 20
346.126884
 30
0.0
 10
312.514417
 20
348.538200
 30
0.0
 10
312.514417
 20
351.512711
 30
0.0
  0
SPLINE
  5
125
100
AcDbEntity
  8
Layer_1
 62
1
100
AcDbSpline
 70
8
 71
3
 72
8
 73
4
 74
0
 40
0
 40
0
 40
0
 40
0
 40
1
 40
1
 40
1
 40
1
 10
312.514417
 20
351.512711
 30
0.0
 10
312.514417
 20
354.487221
 30
0.0
 10
314.925735
 20
356.898537
 30
0.0
 10
317.900244
 20
356.898537
 30
0.0
  0
SPLINE
  5
126
100
AcDbEntity
  8
Layer_1
 62
1
100
AcDbSpline
 70
8
 71
3
 72
8
 73
4
 74
0
 40
0
 40
0
 40
0
 40
0
 40
1
 40
1
 40
1
 40
1
 10
317.900244
 20
356.898537
 30
0.0
 10
320.874754
 20
356.898537
 30
0.0
 10
323.286071
 20
354.487221
 30
0.0
 10
323.286071
 20
351.512711
 30
0.0
  0
LWPOLYLINE
  5
127
100
AcDbEntity
  8
Layer_1
 62
1
100
AcDbPolyline
 90
2
 70
1
 10
379.270324
 20
402.536334
 30
0.0
 10
379.270324
 20
402.536334
 30
0.0
  0
SPLINE
  5
128
100
AcDbEntity
  8
Layer_1
 62
1
100
AcDbSpline
 70
8
 71
3
 72
8
 73
4
 74
0
 40
0
 40
0
 40
0
 40
0
 40
1
 40
1
 40
1
 40
1
 10
425.333311
 20
351.512711
 30
0.0
 10
425.333311
 20
348.538200
 30
0.0
 10
422.921994
 20
346.126884
 30
0.0
 10
419.947484
 20
346.126884
 30
0.0
  0
SPLINE
  5
129
100
AcDbEntity
  8
Layer_1
 62
1
100
AcDbSpline
 70
8
 71
3
 72
8
 73
4
 74
0
 40
0
 40
0
 40
0
 40
0
 40
1
 40
1
 40
1
 40
1
 10
419.947484
 20
346.126884
 30
0.0
 10
416.972975
 20
346.126884
 30
0.0
 10
414.561657
 20
348.538200
 30
0.0
 10
414.561657
 20
351.512711
 30
0.0
  0
SPLINE
  5
12a
100
AcDbEntity
  8
Layer_1
 62
1
100
AcDbSpline
 70
8
 71
3
 72
8
 73
4
 74
0
 40
0
 40
0
 40
0
 40
0
 40
1
 40
1
 40
1
 40
1
 10
414.561657
 20
351.512711
 30
0.0
 10
414.561657
 20
354.487221
 30
0.0
 10
416.972975
 20
356.898537
 30
0.0
 10
419.947484
 20
356.898537
 30
0.0
  0
SPLINE
  5
12b
100
AcDbEntity
  8
Layer_1
 62
1
100
AcDbSpline
 70
8
 71
3
 72
8
 73
4
 74
0
 40
0
 40
0
 40
0
 40
0
 40
1
 40
1
 40
1
 40
1
 10
419.947484
 20
356.898537
 30
0.0
 10
422.921994
 20
356.898537
 30
0.0
 10
425.333311
 20
354.487221
 30
0.0
 10
425.333311
 20
351.512711
 30
0.0
  0
LWPOLYLINE
  5
12c
100
AcDbEntity
  8
Layer_1
 62
1
100
AcDbPolyline
 90
2
 70
1
 10
323.286071
 20
351.512711
 30
0.0
 10
323.286071
 20
351.512711
 30
0.0
  0
SPLINE
  5
12d
100
AcDbEntity
  8
Layer_1
 62
1
100
AcDbSpline
 70
8
 71
3
 72
8
 73
4
 74
0
 40
0
 40
0
 40
0
 40
0
 40
1
 40
1
 40
1
 40
1
 10
323.286071
 20
453.559951
 30
0.0
 10
323.286071
 20
450.585440
 30
0.0
 10
320.874754
 20
448.174124
 30
0.0
 10
317.900244
 20
448.174124
 30
0.0
  0
SPLINE
  5
12e
100
AcDbEntity
  8
Layer_1
 62
1
100
AcDbSpline
 70
8
 71
3
 72
8
 73
4
 74
0
 40
0
 40
0
 40
0
 40
0
 40
1
 40
1
 40
1
 40
1
 10
317.900244
 20
448.174124
 30
0.0
 10
314.925735
 20
448.174124
 30
0.0
 10
312.514417
 20
450.585440
 30
0.0
 10
312.514417
 20
453.559951
 30
0.0
  0
SPLINE
  5
12f
100
AcDbEntity
  8
Layer_1
 62
1
100
AcDbSpline
 70
8
 71
3
 72
8
 73
4
 74
0
 40
0
 40
0
 40
0
 40
0
 40
1
 40
1
 40
1
 40
1
 10
312.514417
 20
453.559951
 30
0.0
 10
312.514417
 20
456.534461
 30
0.0
 10
314.925735
 20
458.945777
 30
0.0
 10
317.900244
 20
458.945777
 30
0.0
  0
SPLINE
  5
130
100
AcDbEntity
  8
Layer_1
 62
1
100
AcDbSpline
 70
8
 71
3
 72
8
 73
4
 74
0
 40
0
 40
0
 40
0
 40
0
 40
1
 40
1
 40
1
 40
1
 10
317.900244
 20
458.945777
 30
0.0
 10
320.874754
 20
458.945777
 30
0.0
 10
323.286071
 20
456.534461
 30
0.0
 10
323.286071
 20
453.559951
 30
0.0
  0
LWPOLYLINE
  5
131
100
AcDbEntity
  8
Layer_1
 62
1
100
AcDbPolyline
 90
2
 70
1
 10
425.333311
 20
351.512711
 30
0.0
 10
425.333311
 20
351.512711
 30
0.0
  0
SPLINE
  5
132
100
AcDbEntity
  8
Layer_1
 62
1
100
AcDbSpline
 70
8
 71
3
 72
8
 73
4
 74
0
 40
0
 40
0
 40
0
 40
0
 40
1
 40
1
 40
1
 40
1
 10
425.333311
 20
453.559951
 30
0.0
 10
425.333311
 20
450.585440
 30
0.0
 10
422.921994
 20
448.174124
 30
0.0
 10
419.947484
 20
448.174124
 30
0.0
  0
SPLINE
  5
133
100
AcDbEntity
  8
Layer_1
 62
1
100
AcDbSpline
 70
8
 71
3
 72
8
 73
4
 74
0
 40
0
 40
0
 40
0
 40
0
 40
1
 40
1
 40
1
 40
1
 10
419.947484
 20
448.174124
 30
0.0
 10
416.972975
 20
448.174124
 30
0.0
 10
414.561657
 20
450.585440
 30
0.0
 10
414.561657
 20
453.559951
 30
0.0
  0
SPLINE
  5
134
100
AcDbEntity
  8
Layer_1
 62
1
100
AcDbSpline
 70
8
 71
3
 72
8
 73
4
 74
0
 40
0
 40
0
 40
0
 40
0
 40
1
 40
1
 40
1
 40
1
 10
414.561657
 20
453.559951
 30
0.0
 10
414.561657
 20
456.534461
 30
0.0
 10
416.972975
 20
458.945777
 30
0.0
 10
419.947484
 20
458.945777
 30
0.0
  0
SPLINE
  5
135
100
AcDbEntity
  8
Layer_1
 62
1
100
AcDbSpline
 70
8
 71
3
 72
8
 73
4
 74
0
 40
0
 40
0
 40
0
 40
0
 40
1
 40
1
 40
1
 40
1
 10
419.947484
 20
458.945777
 30
0.0
 10
422.921994
 20
458.945777
 30
0.0
 10
425.333311
 20
456.534461
 30
0.0
 10
425.333311
 20
453.559951
 30
0.0
  0
LWPOLYLINE
  5
136
100
AcDbEntity
  8
Layer_1
 62
1
100
AcDbPolyline
 90
2
 70
1
 10
323.286071
 20
453.559951
 30
0.0
 10
323.286071
 20
453.559951
 30
0.0
  0
SPLINE
  5
137
100
AcDbEntity
  8
Layer_1
 62
1
100
AcDbSpline
 70
8
 71
3
 72
8
 73
4
 74
0
 40
0
 40
0
 40
0
 40
0
 40
1
 40
1
 40
1
 40
1
 10
382.884997
 20
358.461006
 30
0.0
 10
382.046253
 20
360.485913
 30
0.0
 10
383.007828
 20
362.807362
 30
0.0
 10
385.032736
 20
363.646106
 30
0.0
  0
SPLINE
  5
138
100
AcDbEntity
  8
Layer_1
 62
1
100
AcDbSpline
 70
8
 71
3
 72
8
 73
4
 74
0
 40
0
 40
0
 40
0
 40
0
 40
1
 40
1
 40
1
 40
1
 10
385.032736
 20
363.646106
 30
0.0
 10
387.057644
 20
364.484851
 30
0.0
 10
389.379092
 20
363.523274
 30
0.0
 10
390.217836
 20
361.498367
 30
0.0
  0
SPLINE
  5
139
100
AcDbEntity
  8
Layer_1
 62
1
100
AcDbSpline
 70
8
 71
3
 72
8
 73
4
 74
0
 40
0
 40
0
 40
0
 40
0
 40
1
 40
1
 40
1
 40
1
 10
390.217836
 20
361.498367
 30
0.0
 10
391.056580
 20
359.473459
 30
0.0
 10
390.095005
 20
357.152012
 30
0.0
 10
388.070097
 20
356.313267
 30
0.0
  0
SPLINE
  5
13a
100
AcDbEntity
  8
Layer_1
 62
1
100
AcDbSpline
 70
8
 71
3
 72
8
 73
4
 74
0
 40
0
 40
0
 40
0
 40
0
 40
1
 40
1
 40
1
 40
1
 10
388.070097
 20
356.313267
 30
0.0
 10
386.045189
 20
355.474523
 30
0.0
 10
383.723741
 20
356.436098
 30
0.0
 10
382.884997
 20
358.461006
 30
0.0
  0
LWPOLYLINE
  5
13b
100
AcDbEntity
  8
Layer_1
 62
1
100
AcDbPolyline
 90
2
 70
1
 10
425.333311
 20
453.559951
 30
0.0
 10
425.333311
 20
453.559951
 30
0.0
  0
SPLINE
  5
13c
100
AcDbEntity
  8
Layer_1
 62
1
100
AcDbSpline
 70
8
 71
3
 72
8
 73
4
 74
0
 40
0
 40
0
 40
0
 40
0
 40
1
 40
1
 40
1
 40
1
 10
354.962750
 20
446.611675
 30
0.0
 10
355.801493
 20
444.586769
 30
0.0
 10
354.839919
 20
442.265319
 30
0.0
 10
352.815011
 20
441.426575
 30
0.0
  0
SPLINE
  5
13d
100
AcDbEntity
  8
Layer_1
 62
1
100
AcDbSpline
 70
8
 71
3
 72
8
 73
4
 74
0
 40
0
 40
0
 40
0
 40
0
 40
1
 40
1
 40
1
 40
1
 10
352.815011
 20
441.426575
 30
0.0
 10
350.790103
 20
440.587831
 30
0.0
 10
348.468654
 20
441.549407
 30
0.0
 10
347.629910
 20
443.574314
 30
0.0
  0
SPLINE
  5
13e
100
AcDbEntity
  8
Layer_1
 62
1
100
AcDbSpline
 70
8
 71
3
 72
8
 73
4
 74
0
 40
0
 40
0
 40
0
 40
0
 40
1
 40
1
 40
1
 40
1
 10
347.629910
 20
443.574314
 30
0.0
 10
346.791166
 20
445.599222
 30
0.0
 10
347.752741
 20
447.920670
 30
0.0
 10
349.777649
 20
448.759414
 30
0.0
  0
SPLINE
  5
13f
100
AcDbEntity
  8
Layer_1
 62
1
100
AcDbSpline
 70
8
 71
3
 72
8
 73
4
 74
0
 40
0
 40
0
 40
0
 40
0
 40
1
 40
1
 40
1
 40
1
 10
349.777649
 20
448.759414
 30
0.0
 10
351.802557
 20
449.598158
 30
0.0
 10
354.124005
 20
448.636583
 30
0.0
 10
354.962750
 20
446.611675
 30
0.0
  0
LWPOLYLINE
  5
140
100
AcDbEntity
  8
Layer_1
 62
1
100
AcDbPolyline
 90
2
 70
1
 10
382.884997
 20
358.461006
 30
0.0
 10
382.884997
 20
358.461006
 30
0.0
  0
SPLINE
  5
141
100
AcDbEntity
  8
Layer_1
 62
3
100
AcDbSpline
 70
8
 71
3
 72
8
 73
4
 74
0
 40
0
 40
0
 40
0
 40
0
 40
1
 40
1
 40
1
 40
1
 10
261.686368
 20
718.744272
 30
0.0
 10
263.618176
 20
718.744272
 30
0.0
 10
265.186368
 20
717.176088
 30
0.0
 10
265.186368
 20
715.244272
 30
0.0
  0
SPLINE
  5
142
100
AcDbEntity
  8
Layer_1
 62
3
100
AcDbSpline
 70
8
 71
3
 72
8
 73
4
 74
0
 40
0
 40
0
 40
0
 40
0
 40
1
 40
1
 40
1
 40
1
 10
265.186368
 20
715.244272
 30
0.0
 10
265.186368
 20
713.312464
 30
0.0
 10
263.618176
 20
711.744272
 30
0.0
 10
261.686368
 20
711.744272
 30
0.0
  0
SPLINE
  5
143
100
AcDbEntity
  8
Layer_1
 62
3
100
AcDbSpline
 70
8
 71
3
 72
8
 73
4
 74
0
 40
0
 40
0
 40
0
 40
0
 40
1
 40
1
 40
1
 40
1
 10
261.686368
 20
711.744272
 30
0.0
 10
259.754560
 20
711.744272
 30
0.0
 10
258.186368
 20
713.312464
 30
0.0
 10
258.186368
 20
715.244272
 30
0.0
  0
SPLINE
  5
144
100
AcDbEntity
  8
Layer_1
 62
3
100
AcDbSpline
 70
8
 71
3
 72
8
 73
4
 74
0
 40
0
 40
0
 40
0
 40
0
 40
1
 40
1
 40
1
 40
1
 10
258.186368
 20
715.244272
 30
0.0
 10
258.186368
 20
717.176088
 30
0.0
 10
259.754560
 20
718.744272
 30
0.0
 10
261.686368
 20
718.744272
 30
0.0
  0
LWPOLYLINE
  5
145
100
AcDbEntity
  8
Layer_1
 62
1
100
AcDbPolyline
 90
2
 70
1
 10
354.962750
 20
446.611675
 30
0.0
 10
354.962750
 20
446.611675
 30
0.0
  0
SPLINE
  5
146
100
AcDbEntity
  8
Layer_1
 62
3
100
AcDbSpline
 70
8
 71
3
 72
8
 73
4
 74
0
 40
0
 40
0
 40
0
 40
0
 40
1
 40
1
 40
1
 40
1
 10
476.186368
 20
718.744272
 30
0.0
 10
478.118176
 20
718.744272
 30
0.0
 10
479.661368
 20
717.176088
 30
0.0
 10
479.661368
 20
715.244272
 30
0.0
  0
SPLINE
  5
147
100
AcDbEntity
  8
Layer_1
 62
3
100
AcDbSpline
 70
8
 71
3
 72
8
 73
4
 74
0
 40
0
 40
0
 40
0
 40
0
 40
1
 40
1
 40
1
 40
1
 10
479.661368
 20
715.244272
 30
0.0
 10
479.661368
 20
713.312464
 30
0.0
 10
478.118176
 20
711.744272
 30
0.0
 10
476.186368
 20
711.744272
 30
0.0
  0
SPLINE
  5
148
100
AcDbEntity
  8
Layer_1
 62
3
100
AcDbSpline
 70
8
 71
3
 72
8
 73
4
 74
0
 40
0
 40
0
 40
0
 40
0
 40
1
 40
1
 40
1
 40
1
 10
476.186368
 20
711.744272
 30
0.0
 10
474.254560
 20
711.744272
 30
0.0
 10
472.686368
 20
713.312464
 30
0.0
 10
472.686368
 20
715.244272
 30
0.0
  0
SPLINE
  5
149
100
AcDbEntity
  8
Layer_1
 62
3
100
AcDbSpline
 70
8
 71
3
 72
8
 73
4
 74
0
 40
0
 40
0
 40
0
 40
0
 40
1
 40
1
 40
1
 40
1
 10
472.686368
 20
715.244272
 30
0.0
 10
472.686368
 20
717.176088
 30
0.0
 10
474.254560
 20
718.744272
 30
0.0
 10
476.186368
 20
718.744272
 30
0.0
  0
LWPOLYLINE
  5
14a
100
AcDbEntity
  8
Layer_1
 62
3
100
AcDbPolyline
 90
2
 70
1
 10
261.686368
 20
718.744272
 30
0.0
 10
261.686368
 20
718.744272
 30
0.0
  0
SPLINE
  5
14b
100
AcDbEntity
  8
Layer_1
 62
3
100
AcDbSpline
 70
8
 71
3
 72
8
 73
4
 74
0
 40
0
 40
0
 40
0
 40
0
 40
1
 40
1
 40
1
 40
1
 10
261.686368
 20
630.869272
 30
0.0
 10
263.618176
 20
630.869272
 30
0.0
 10
265.186368
 20
629.301080
 30
0.0
 10
265.186368
 20
627.369264
 30
0.0
  0
SPLINE
  5
14c
100
AcDbEntity
  8
Layer_1
 62
3
100
AcDbSpline
 70
8
 71
3
 72
8
 73
4
 74
0
 40
0
 40
0
 40
0
 40
0
 40
1
 40
1
 40
1
 40
1
 10
265.186368
 20
627.369264
 30
0.0
 10
265.186368
 20
625.437456
 30
0.0
 10
263.618176
 20
623.869264
 30
0.0
 10
261.686368
 20
623.869264
 30
0.0
  0
SPLINE
  5
14d
100
AcDbEntity
  8
Layer_1
 62
3
100
AcDbSpline
 70
8
 71
3
 72
8
 73
4
 74
0
 40
0
 40
0
 40
0
 40
0
 40
1
 40
1
 40
1
 40
1
 10
261.686368
 20
623.869264
 30
0.0
 10
259.754560
 20
623.869264
 30
0.0
 10
258.186368
 20
625.437456
 30
0.0
 10
258.186368
 20
627.369264
 30
0.0
  0
SPLINE
  5
14e
100
AcDbEntity
  8
Layer_1
 62
3
100
AcDbSpline
 70
8
 71
3
 72
8
 73
4
 74
0
 40
0
 40
0
 40
0
 40
0
 40
1
 40
1
 40
1
 40
1
 10
258.186368
 20
627.369264
 30
0.0
 10
258.186368
 20
629.301080
 30
0.0
 10
259.754560
 20
630.869272
 30
0.0
 10
261.686368
 20
630.869272
 30
0.0
  0
LWPOLYLINE
  5
14f
100
AcDbEntity
  8
Layer_1
 62
3
100
AcDbPolyline
 90
2
 70
1
 10
476.186368
 20
718.744272
 30
0.0
 10
476.186368
 20
718.744272
 30
0.0
  0
SPLINE
  5
150
100
AcDbEntity
  8
Layer_1
 62
3
100
AcDbSpline
 70
8
 71
3
 72
8
 73
4
 74
0
 40
0
 40
0
 40
0
 40
0
 40
1
 40
1
 40
1
 40
1
 10
476.186368
 20
630.869272
 30
0.0
 10
478.118176
 20
630.869272
 30
0.0
 10
479.661368
 20
629.301080
 30
0.0
 10
479.661368
 20
627.369264
 30
0.0
  0
SPLINE
  5
151
100
AcDbEntity
  8
Layer_1
 62
3
100
AcDbSpline
 70
8
 71
3
 72
8
 73
4
 74
0
 40
0
 40
0
 40
0
 40
0
 40
1
 40
1
 40
1
 40
1
 10
479.661368
 20
627.369264
 30
0.0
 10
479.661368
 20
625.437456
 30
0.0
 10
478.118176
 20
623.869264
 30
0.0
 10
476.186368
 20
623.869264
 30
0.0
  0
SPLINE
  5
152
100
AcDbEntity
  8
Layer_1
 62
3
100
AcDbSpline
 70
8
 71
3
 72
8
 73
4
 74
0
 40
0
 40
0
 40
0
 40
0
 40
1
 40
1
 40
1
 40
1
 10
476.186368
 20
623.869264
 30
0.0
 10
474.254560
 20
623.869264
 30
0.0
 10
472.686368
 20
625.437456
 30
0.0
 10
472.686368
 20
627.369264
 30
0.0
  0
SPLINE
  5
153
100
AcDbEntity
  8
Layer_1
 62
3
100
AcDbSpline
 70
8
 71
3
 72
8
 73
4
 74
0
 40
0
 40
0
 40
0
 40
0
 40
1
 40
1
 40
1
 40
1
 10
472.686368
 20
627.369264
 30
0.0
 10
472.686368
 20
629.301080
 30
0.0
 10
474.254560
 20
630.869272
 30
0.0
 10
476.186368
 20
630.869272
 30
0.0
  0
LWPOLYLINE
  5
154
100
AcDbEntity
  8
Layer_1
 62
3
100
AcDbPolyline
 90
2
 70
1
 10
261.686368
 20
630.869272
 30
0.0
 10
261.686368
 20
630.869272
 30
0.0
  0
SPLINE
  5
155
100
AcDbEntity
  8
Layer_1
 62
1
100
AcDbSpline
 70
8
 71
3
 72
8
 73
4
 74
0
 40
0
 40
0
 40
0
 40
0
 40
1
 40
1
 40
1
 40
1
 10
261.686368
 20
533.444264
 30
0.0
 10
263.618176
 20
533.444264
 30
0.0
 10
265.186368
 20
531.876080
 30
0.0
 10
265.186368
 20
529.944264
 30
0.0
  0
SPLINE
  5
156
100
AcDbEntity
  8
Layer_1
 62
1
100
AcDbSpline
 70
8
 71
3
 72
8
 73
4
 74
0
 40
0
 40
0
 40
0
 40
0
 40
1
 40
1
 40
1
 40
1
 10
265.186368
 20
529.944264
 30
0.0
 10
265.186368
 20
528.012456
 30
0.0
 10
263.618176
 20
526.469264
 30
0.0
 10
261.686368
 20
526.469264
 30
0.0
  0
SPLINE
  5
157
100
AcDbEntity
  8
Layer_1
 62
1
100
AcDbSpline
 70
8
 71
3
 72
8
 73
4
 74
0
 40
0
 40
0
 40
0
 40
0
 40
1
 40
1
 40
1
 40
1
 10
261.686368
 20
526.469264
 30
0.0
 10
259.754560
 20
526.469264
 30
0.0
 10
258.186368
 20
528.012456
 30
0.0
 10
258.186368
 20
529.944264
 30
0.0
  0
SPLINE
  5
158
100
AcDbEntity
  8
Layer_1
 62
1
100
AcDbSpline
 70
8
 71
3
 72
8
 73
4
 74
0
 40
0
 40
0
 40
0
 40
0
 40
1
 40
1
 40
1
 40
1
 10
258.186368
 20
529.944264
 30
0.0
 10
258.186368
 20
531.876080
 30
0.0
 10
259.754560
 20
533.444264
 30
0.0
 10
261.686368
 20
533.444264
 30
0.0
  0
LWPOLYLINE
  5
159
100
AcDbEntity
  8
Layer_1
 62
3
100
AcDbPolyline
 90
2
 70
1
 10
476.186368
 20
630.869272
 30
0.0
 10
476.186368
 20
630.869272
 30
0.0
  0
SPLINE
  5
15a
100
AcDbEntity
  8
Layer_1
 62
1
100
AcDbSpline
 70
8
 71
3
 72
8
 73
4
 74
0
 40
0
 40
0
 40
0
 40
0
 40
1
 40
1
 40
1
 40
1
 10
476.186368
 20
533.444264
 30
0.0
 10
478.118176
 20
533.444264
 30
0.0
 10
479.661368
 20
531.876080
 30
0.0
 10
479.661368
 20
529.944264
 30
0.0
  0
SPLINE
  5
15b
100
AcDbEntity
  8
Layer_1
 62
1
100
AcDbSpline
 70
8
 71
3
 72
8
 73
4
 74
0
 40
0
 40
0
 40
0
 40
0
 40
1
 40
1
 40
1
 40
1
 10
479.661368
 20
529.944264
 30
0.0
 10
479.661368
 20
528.012456
 30
0.0
 10
478.118176
 20
526.469264
 30
0.0
 10
476.186368
 20
526.469264
 30
0.0
  0
SPLINE
  5
15c
100
AcDbEntity
  8
Layer_1
 62
1
100
AcDbSpline
 70
8
 71
3
 72
8
 73
4
 74
0
 40
0
 40
0
 40
0
 40
0
 40
1
 40
1
 40
1
 40
1
 10
476.186368
 20
526.469264
 30
0.0
 10
474.254560
 20
526.469264
 30
0.0
 10
472.686368
 20
528.012456
 30
0.0
 10
472.686368
 20
529.944264
 30
0.0
  0
SPLINE
  5
15d
100
AcDbEntity
  8
Layer_1
 62
1
100
AcDbSpline
 70
8
 71
3
 72
8
 73
4
 74
0
 40
0
 40
0
 40
0
 40
0
 40
1
 40
1
 40
1
 40
1
 10
472.686368
 20
529.944264
 30
0.0
 10
472.686368
 20
531.876080
 30
0.0
 10
474.254560
 20
533.444264
 30
0.0
 10
476.186368
 20
533.444264
 30
0.0
  0
LWPOLYLINE
  5
15e
100
AcDbEntity
  8
Layer_1
 62
1
100
AcDbPolyline
 90
2
 70
1
 10
261.686368
 20
533.444264
 30
0.0
 10
261.686368
 20
533.444264
 30
0.0
  0
SPLINE
  5
15f
100
AcDbEntity
  8
Layer_1
 62
1
100
AcDbSpline
 70
8
 71
3
 72
8
 73
4
 74
0
 40
0
 40
0
 40
0
 40
0
 40
1
 40
1
 40
1
 40
1
 10
448.749203
 20
591.269273
 30
0.0
 10
448.749203
 20
581.887150
 30
0.0
 10
441.143491
 20
574.281442
 30
0.0
 10
431.761366
 20
574.281442
 30
0.0
  0
SPLINE
  5
160
100
AcDbEntity
  8
Layer_1
 62
1
100
AcDbSpline
 70
8
 71
3
 72
8
 73
4
 74
0
 40
0
 40
0
 40
0
 40
0
 40
1
 40
1
 40
1
 40
1
 10
431.761366
 20
574.281442
 30
0.0
 10
422.379240
 20
574.281442
 30
0.0
 10
414.773528
 20
581.887150
 30
0.0
 10
414.773528
 20
591.269273
 30
0.0
  0
SPLINE
  5
161
100
AcDbEntity
  8
Layer_1
 62
1
100
AcDbSpline
 70
8
 71
3
 72
8
 73
4
 74
0
 40
0
 40
0
 40
0
 40
0
 40
1
 40
1
 40
1
 40
1
 10
414.773528
 20
591.269273
 30
0.0
 10
414.773528
 20
600.651390
 30
0.0
 10
422.379240
 20
608.257098
 30
0.0
 10
431.761366
 20
608.257098
 30
0.0
  0
SPLINE
  5
162
100
AcDbEntity
  8
Layer_1
 62
1
100
AcDbSpline
 70
8
 71
3
 72
8
 73
4
 74
0
 40
0
 40
0
 40
0
 40
0
 40
1
 40
1
 40
1
 40
1
 10
431.761366
 20
608.257098
 30
0.0
 10
441.143491
 20
608.257098
 30
0.0
 10
448.749203
 20
600.651390
 30
0.0
 10
448.749203
 20
591.269273
 30
0.0
  0
LWPOLYLINE
  5
163
100
AcDbEntity
  8
Layer_1
 62
1
100
AcDbPolyline
 90
2
 70
1
 10
476.186368
 20
533.444264
 30
0.0
 10
476.186368
 20
533.444264
 30
0.0
  0
SPLINE
  5
164
100
AcDbEntity
  8
Layer_1
 62
1
100
AcDbSpline
 70
8
 71
3
 72
8
 73
4
 74
0
 40
0
 40
0
 40
0
 40
0
 40
1
 40
1
 40
1
 40
1
 10
448.718390
 20
551.819276
 30
0.0
 10
448.718390
 20
542.454170
 30
0.0
 10
441.126472
 20
534.862256
 30
0.0
 10
431.761364
 20
534.862256
 30
0.0
  0
SPLINE
  5
165
100
AcDbEntity
  8
Layer_1
 62
1
100
AcDbSpline
 70
8
 71
3
 72
8
 73
4
 74
0
 40
0
 40
0
 40
0
 40
0
 40
1
 40
1
 40
1
 40
1
 10
431.761364
 20
534.862256
 30
0.0
 10
422.396255
 20
534.862256
 30
0.0
 10
414.804338
 20
542.454170
 30
0.0
 10
414.804338
 20
551.819276
 30
0.0
  0
SPLINE
  5
166
100
AcDbEntity
  8
Layer_1
 62
1
100
AcDbSpline
 70
8
 71
3
 72
8
 73
4
 74
0
 40
0
 40
0
 40
0
 40
0
 40
1
 40
1
 40
1
 40
1
 10
414.804338
 20
551.819276
 30
0.0
 10
414.804338
 20
561.184376
 30
0.0
 10
422.396255
 20
568.776289
 30
0.0
 10
431.761364
 20
568.776289
 30
0.0
  0
SPLINE
  5
167
100
AcDbEntity
  8
Layer_1
 62
1
100
AcDbSpline
 70
8
 71
3
 72
8
 73
4
 74
0
 40
0
 40
0
 40
0
 40
0
 40
1
 40
1
 40
1
 40
1
 10
431.761364
 20
568.776289
 30
0.0
 10
441.126472
 20
568.776289
 30
0.0
 10
448.718390
 20
561.184376
 30
0.0
 10
448.718390
 20
551.819276
 30
0.0
  0
LWPOLYLINE
  5
168
100
AcDbEntity
  8
Layer_1
 62
1
100
AcDbPolyline
 90
2
 70
1
 10
448.749203
 20
591.269273
 30
0.0
 10
448.749203
 20
591.269273
 30
0.0
  0
SPLINE
  5
169
100
AcDbEntity
  8
Layer_1
 62
1
100
AcDbSpline
 70
8
 71
3
 72
8
 73
4
 74
0
 40
0
 40
0
 40
0
 40
0
 40
1
 40
1
 40
1
 40
1
 10
324.093390
 20
591.269276
 30
0.0
 10
324.093390
 20
581.904170
 30
0.0
 10
316.501472
 20
574.312256
 30
0.0
 10
307.136364
 20
574.312256
 30
0.0
  0
SPLINE
  5
16a
100
AcDbEntity
  8
Layer_1
 62
1
100
AcDbSpline
 70
8
 71
3
 72
8
 73
4
 74
0
 40
0
 40
0
 40
0
 40
0
 40
1
 40
1
 40
1
 40
1
 10
307.136364
 20
574.312256
 30
0.0
 10
297.771255
 20
574.312256
 30
0.0
 10
290.179338
 20
581.904170
 30
0.0
 10
290.179338
 20
591.269276
 30
0.0
  0
SPLINE
  5
16b
100
AcDbEntity
  8
Layer_1
 62
1
100
AcDbSpline
 70
8
 71
3
 72
8
 73
4
 74
0
 40
0
 40
0
 40
0
 40
0
 40
1
 40
1
 40
1
 40
1
 10
290.179338
 20
591.269276
 30
0.0
 10
290.179338
 20
600.634376
 30
0.0
 10
297.771255
 20
608.226289
 30
0.0
 10
307.136364
 20
608.226289
 30
0.0
  0
SPLINE
  5
16c
100
AcDbEntity
  8
Layer_1
 62
1
100
AcDbSpline
 70
8
 71
3
 72
8
 73
4
 74
0
 40
0
 40
0
 40
0
 40
0
 40
1
 40
1
 40
1
 40
1
 10
307.136364
 20
608.226289
 30
0.0
 10
316.501472
 20
608.226289
 30
0.0
 10
324.093390
 20
600.634376
 30
0.0
 10
324.093390
 20
591.269276
 30
0.0
  0
LWPOLYLINE
  5
16d
100
AcDbEntity
  8
Layer_1
 62
1
100
AcDbPolyline
 90
2
 70
1
 10
448.718390
 20
551.819276
 30
0.0
 10
448.718390
 20
551.819276
 30
0.0
  0
SPLINE
  5
16e
100
AcDbEntity
  8
Layer_1
 62
1
100
AcDbSpline
 70
8
 71
3
 72
8
 73
4
 74
0
 40
0
 40
0
 40
0
 40
0
 40
1
 40
1
 40
1
 40
1
 10
324.093390
 20
551.819276
 30
0.0
 10
324.093390
 20
542.454170
 30
0.0
 10
316.501472
 20
534.862256
 30
0.0
 10
307.136364
 20
534.862256
 30
0.0
  0
SPLINE
  5
16f
100
AcDbEntity
  8
Layer_1
 62
1
100
AcDbSpline
 70
8
 71
3
 72
8
 73
4
 74
0
 40
0
 40
0
 40
0
 40
0
 40
1
 40
1
 40
1
 40
1
 10
307.136364
 20
534.862256
 30
0.0
 10
297.771255
 20
534.862256
 30
0.0
 10
290.179338
 20
542.454170
 30
0.0
 10
290.179338
 20
551.819276
 30
0.0
  0
SPLINE
  5
170
100
AcDbEntity
  8
Layer_1
 62
1
100
AcDbSpline
 70
8
 71
3
 72
8
 73
4
 74
0
 40
0
 40
0
 40
0
 40
0
 40
1
 40
1
 40
1
 40
1
 10
290.179338
 20
551.819276
 30
0.0
 10
290.179338
 20
561.184376
 30
0.0
 10
297.771255
 20
568.776289
 30
0.0
 10
307.136364
 20
568.776289
 30
0.0
  0
SPLINE
  5
171
100
AcDbEntity
  8
Layer_1
 62
1
100
AcDbSpline
 70
8
 71
3
 72
8
 73
4
 74
0
 40
0
 40
0
 40
0
 40
0
 40
1
 40
1
 40
1
 40
1
 10
307.136364
 20
568.776289
 30
0.0
 10
316.501472
 20
568.776289
 30
0.0
 10
324.093390
 20
561.184376
 30
0.0
 10
324.093390
 20
551.819276
 30
0.0
  0
LWPOLYLINE
  5
172
100
AcDbEntity
  8
Layer_1
 62
1
100
AcDbPolyline
 90
2
 70
1
 10
324.093390
 20
591.269276
 30
0.0
 10
324.093390
 20
591.269276
 30
0.0
  0
SPLINE
  5
173
100
AcDbEntity
  8
Layer_1
 62
3
100
AcDbSpline
 70
8
 71
3
 72
8
 73
4
 74
0
 40
0
 40
0
 40
0
 40
0
 40
1
 40
1
 40
1
 40
1
 10
385.610798
 20
571.744264
 30
0.0
 10
385.610798
 20
562.535230
 30
0.0
 10
378.145402
 20
555.069838
 30
0.0
 10
368.936366
 20
555.069838
 30
0.0
  0
SPLINE
  5
174
100
AcDbEntity
  8
Layer_1
 62
3
100
AcDbSpline
 70
8
 71
3
 72
8
 73
4
 74
0
 40
0
 40
0
 40
0
 40
0
 40
1
 40
1
 40
1
 40
1
 10
368.936366
 20
555.069838
 30
0.0
 10
359.727330
 20
555.069838
 30
0.0
 10
352.261934
 20
562.535230
 30
0.0
 10
352.261934
 20
571.744264
 30
0.0
  0
SPLINE
  5
175
100
AcDbEntity
  8
Layer_1
 62
3
100
AcDbSpline
 70
8
 71
3
 72
8
 73
4
 74
0
 40
0
 40
0
 40
0
 40
0
 40
1
 40
1
 40
1
 40
1
 10
352.261934
 20
571.744264
 30
0.0
 10
352.261934
 20
580.953292
 30
0.0
 10
359.727330
 20
588.418685
 30
0.0
 10
368.936366
 20
588.418685
 30
0.0
  0
SPLINE
  5
176
100
AcDbEntity
  8
Layer_1
 62
3
100
AcDbSpline
 70
8
 71
3
 72
8
 73
4
 74
0
 40
0
 40
0
 40
0
 40
0
 40
1
 40
1
 40
1
 40
1
 10
368.936366
 20
588.418685
 30
0.0
 10
378.145402
 20
588.418685
 30
0.0
 10
385.610798
 20
580.953292
 30
0.0
 10
385.610798
 20
571.744264
 30
0.0
  0
LWPOLYLINE
  5
177
100
AcDbEntity
  8
Layer_1
 62
1
100
AcDbPolyline
 90
2
 70
1
 10
324.093390
 20
551.819276
 30
0.0
 10
324.093390
 20
551.819276
 30
0.0
  0
LWPOLYLINE
  5
178
100
AcDbEntity
  8
Layer_1
 62
3
100
AcDbPolyline
 90
2
 70
1
 10
385.610798
 20
571.744264
 30
0.0
 10
385.610798
 20
571.744264
 30
0.0
  0
SPLINE
  5
179
100
AcDbEntity
  8
Layer_1
 62
1
100
AcDbSpline
 70
8
 71
3
 72
8
 73
4
 74
0
 40
0
 40
0
 40
0
 40
0
 40
1
 40
1
 40
1
 40
1
 10
474.366128
 20
709.927496
 30
0.0
 10
474.374448
 20
709.927496
 30
0.0
 10
474.366128
 20
709.905976
 30
0.0
 10
474.366128
 20
709.896776
 30
0.0
  0
LWPOLYLINE
  5
17a
100
AcDbEntity
  8
Layer_1
 62
1
100
AcDbPolyline
 90
2
 70
1
 10
263.318272
 20
709.927496
 30
0.0
 10
474.366128
 20
709.927496
 30
0.0
  0
SPLINE
  5
17b
100
AcDbEntity
  8
Layer_1
 62
1
100
AcDbSpline
 70
8
 71
3
 72
8
 73
4
 74
0
 40
0
 40
0
 40
0
 40
0
 40
1
 40
1
 40
1
 40
1
 10
474.366128
 20
633.541832
 30
0.0
 10
474.366128
 20
633.533112
 30
0.0
 10
474.374448
 20
633.511112
 30
0.0
 10
474.366128
 20
633.511112
 30
0.0
  0
LWPOLYLINE
  5
17c
100
AcDbEntity
  8
Layer_1
 62
1
100
AcDbPolyline
 90
2
 70
1
 10
474.366128
 20
709.896776
 30
0.0
 10
474.366128
 20
633.541832
 30
0.0
  0
SPLINE
  5
17d
100
AcDbEntity
  8
Layer_1
 62
1
100
AcDbSpline
 70
8
 71
3
 72
8
 73
4
 74
0
 40
0
 40
0
 40
0
 40
0
 40
1
 40
1
 40
1
 40
1
 10
263.318272
 20
633.511112
 30
0.0
 10
263.311072
 20
633.511112
 30
0.0
 10
263.291792
 20
633.532632
 30
0.0
 10
263.291792
 20
633.541832
 30
0.0
  0
LWPOLYLINE
  5
17e
100
AcDbEntity
  8
Layer_1
 62
1
100
AcDbPolyline
 90
2
 70
1
 10
474.366128
 20
633.511112
 30
0.0
 10
263.318272
 20
633.511112
 30
0.0
  0
SPLINE
  5
17f
100
AcDbEntity
  8
Layer_1
 62
1
100
AcDbSpline
 70
8
 71
3
 72
8
 73
4
 74
0
 40
0
 40
0
 40
0
 40
0
 40
1
 40
1
 40
1
 40
1
 10
263.291792
 20
709.896792
 30
0.0
 10
263.291792
 20
709.905512
 30
0.0
 10
263.310352
 20
709.927512
 30
0.0
 10
263.318272
 20
709.927512
 30
0.0
  0
LWPOLYLINE
  5
180
100
AcDbEntity
  8
Layer_1
 62
1
100
AcDbPolyline
 90
2
 70
1
 10
263.291792
 20
633.541832
 30
0.0
 10
263.291792
 20
709.896792
 30
0.0
  0
LWPOLYLINE
  5
181
100
AcDbEntity
  8
Layer_1
 62
1
100
AcDbPolyline
 90
2
 70
1
 10
263.318272
 20
709.927512
 30
0.0
 10
263.318272
 20
709.927496
 30
0.0
  0
LWPOLYLINE
  5
182
100
AcDbEntity
  8
Layer_1
 62
1
100
AcDbPolyline
 90
2
 70
0
 10
384.133215
 20
582.615656
 30
0.0
 10
396.632022
 20
582.615656
 30
0.0
  0
LWPOLYLINE
  5
183
100
AcDbEntity
  8
Layer_1
 62
1
100
AcDbPolyline
 90
2
 70
0
 10
357.928481
 20
586.867576
 30
0.0
 10
357.928481
 20
599.366376
 30
0.0
  0
LWPOLYLINE
  5
184
100
AcDbEntity
  8
Layer_1
 62
1
100
AcDbPolyline
 90
2
 70
0
 10
379.881247
 20
599.366376
 30
0.0
 10
379.881247
 20
586.867576
 30
0.0
  0
LWPOLYLINE
  5
185
100
AcDbEntity
  8
Layer_1
 62
1
100
AcDbPolyline
 90
2
 70
0
 10
396.632022
 20
560.662856
 30
0.0
 10
384.133215
 20
560.662856
 30
0.0
  0
LWPOLYLINE
  5
186
100
AcDbEntity
  8
Layer_1
 62
1
100
AcDbPolyline
 90
2
 70
0
 10
379.881247
 20
556.410936
 30
0.0
 10
379.881247
 20
543.912056
 30
0.0
  0
LWPOLYLINE
  5
187
100
AcDbEntity
  8
Layer_1
 62
1
100
AcDbPolyline
 90
2
 70
0
 10
341.177706
 20
582.615656
 30
0.0
 10
353.676513
 20
582.615656
 30
0.0
  0
LWPOLYLINE
  5
188
100
AcDbEntity
  8
Layer_1
 62
1
100
AcDbPolyline
 90
2
 70
0
 10
353.676513
 20
560.662856
 30
0.0
 10
341.177706
 20
560.662856
 30
0.0
  0
SPLINE
  5
189
100
AcDbEntity
  8
Layer_1
 62
1
100
AcDbSpline
 70
8
 71
3
 72
8
 73
4
 74
0
 40
0
 40
0
 40
0
 40
0
 40
1
 40
1
 40
1
 40
1
 10
376.631418
 20
603.498616
 30
0.0
 10
371.553975
 20
604.730002
 30
0.0
 10
366.255753
 20
604.730002
 30
0.0
 10
361.178310
 20
603.498616
 30
0.0
  0
SPLINE
  5
18a
100
AcDbEntity
  8
Layer_1
 62
1
100
AcDbSpline
 70
8
 71
3
 72
8
 73
4
 74
0
 40
0
 40
0
 40
0
 40
0
 40
1
 40
1
 40
1
 40
1
 10
396.632022
 20
560.662856
 30
0.0
 10
398.594301
 20
560.662858
 30
0.0
 10
400.301725
 20
562.005696
 30
0.0
 10
400.764206
 20
563.912696
 30
0.0
  0
SPLINE
  5
18b
100
AcDbEntity
  8
Layer_1
 62
1
100
AcDbSpline
 70
8
 71
3
 72
8
 73
4
 74
0
 40
0
 40
0
 40
0
 40
0
 40
1
 40
1
 40
1
 40
1
 10
376.631419
 20
539.779896
 30
0.0
 10
378.538406
 20
540.242380
 30
0.0
 10
379.881236
 20
541.949790
 30
0.0
 10
379.881247
 20
543.912056
 30
0.0
  0
SPLINE
  5
18c
100
AcDbEntity
  8
Layer_1
 62
1
100
AcDbSpline
 70
8
 71
3
 72
8
 73
4
 74
0
 40
0
 40
0
 40
0
 40
0
 40
1
 40
1
 40
1
 40
1
 10
361.178310
 20
539.779896
 30
0.0
 10
366.255753
 20
538.548510
 30
0.0
 10
371.553975
 20
538.548510
 30
0.0
 10
376.631418
 20
539.779896
 30
0.0
  0
SPLINE
  5
18d
100
AcDbEntity
  8
Layer_1
 62
1
100
AcDbSpline
 70
8
 71
3
 72
8
 73
4
 74
0
 40
0
 40
0
 40
0
 40
0
 40
1
 40
1
 40
1
 40
1
 10
353.676513
 20
582.615656
 30
0.0
 10
356.024791
 20
582.615657
 30
0.0
 10
357.928454
 20
584.519298
 30
0.0
 10
357.928481
 20
586.867576
 30
0.0
  0
SPLINE
  5
18e
100
AcDbEntity
  8
Layer_1
 62
1
100
AcDbSpline
 70
8
 71
3
 72
8
 73
4
 74
0
 40
0
 40
0
 40
0
 40
0
 40
1
 40
1
 40
1
 40
1
 10
361.178309
 20
603.498616
 30
0.0
 10
359.271293
 20
603.036125
 30
0.0
 10
357.928455
 20
601.328672
 30
0.0
 10
357.928481
 20
599.366376
 30
0.0
  0
SPLINE
  5
18f
100
AcDbEntity
  8
Layer_1
 62
1
100
AcDbSpline
 70
8
 71
3
 72
8
 73
4
 74
0
 40
0
 40
0
 40
0
 40
0
 40
1
 40
1
 40
1
 40
1
 10
337.045522
 20
579.365816
 30
0.0
 10
335.814135
 20
574.288369
 30
0.0
 10
335.814135
 20
568.990143
 30
0.0
 10
337.045522
 20
563.912696
 30
0.0
  0
SPLINE
  5
190
100
AcDbEntity
  8
Layer_1
 62
1
100
AcDbSpline
 70
8
 71
3
 72
8
 73
4
 74
0
 40
0
 40
0
 40
0
 40
0
 40
1
 40
1
 40
1
 40
1
 10
379.881247
 20
599.366376
 30
0.0
 10
379.881273
 20
601.328672
 30
0.0
 10
378.538435
 20
603.036125
 30
0.0
 10
376.631419
 20
603.498616
 30
0.0
  0
SPLINE
  5
191
100
AcDbEntity
  8
Layer_1
 62
1
100
AcDbSpline
 70
8
 71
3
 72
8
 73
4
 74
0
 40
0
 40
0
 40
0
 40
0
 40
1
 40
1
 40
1
 40
1
 10
357.928481
 20
556.410936
 30
0.0
 10
357.928454
 20
558.759214
 30
0.0
 10
356.024791
 20
560.662856
 30
0.0
 10
353.676513
 20
560.662856
 30
0.0
  0
SPLINE
  5
192
100
AcDbEntity
  8
Layer_1
 62
1
100
AcDbSpline
 70
8
 71
3
 72
8
 73
4
 74
0
 40
0
 40
0
 40
0
 40
0
 40
1
 40
1
 40
1
 40
1
 10
384.133215
 20
560.662856
 30
0.0
 10
381.784937
 20
560.662856
 30
0.0
 10
379.881274
 20
558.759214
 30
0.0
 10
379.881247
 20
556.410936
 30
0.0
  0
SPLINE
  5
193
100
AcDbEntity
  8
Layer_1
 62
1
100
AcDbSpline
 70
8
 71
3
 72
8
 73
4
 74
0
 40
0
 40
0
 40
0
 40
0
 40
1
 40
1
 40
1
 40
1
 10
400.764206
 20
579.365816
 30
0.0
 10
400.301725
 20
581.272817
 30
0.0
 10
398.594301
 20
582.615655
 30
0.0
 10
396.632022
 20
582.615656
 30
0.0
  0
SPLINE
  5
194
100
AcDbEntity
  8
Layer_1
 62
1
100
AcDbSpline
 70
8
 71
3
 72
8
 73
4
 74
0
 40
0
 40
0
 40
0
 40
0
 40
1
 40
1
 40
1
 40
1
 10
341.177706
 20
582.615656
 30
0.0
 10
339.215427
 20
582.615655
 30
0.0
 10
337.508003
 20
581.272817
 30
0.0
 10
337.045522
 20
579.365816
 30
0.0
  0
SPLINE
  5
195
100
AcDbEntity
  8
Layer_1
 62
1
100
AcDbSpline
 70
8
 71
3
 72
8
 73
4
 74
0
 40
0
 40
0
 40
0
 40
0
 40
1
 40
1
 40
1
 40
1
 10
379.881247
 20
586.867576
 30
0.0
 10
379.881274
 20
584.519298
 30
0.0
 10
381.784937
 20
582.615657
 30
0.0
 10
384.133215
 20
582.615656
 30
0.0
  0
SPLINE
  5
196
100
AcDbEntity
  8
Layer_1
 62
1
100
AcDbSpline
 70
8
 71
3
 72
8
 73
4
 74
0
 40
0
 40
0
 40
0
 40
0
 40
1
 40
1
 40
1
 40
1
 10
357.928481
 20
543.912056
 30
0.0
 10
357.928492
 20
541.949790
 30
0.0
 10
359.271322
 20
540.242380
 30
0.0
 10
361.178309
 20
539.779896
 30
0.0
  0
SPLINE
  5
197
100
AcDbEntity
  8
Layer_1
 62
1
100
AcDbSpline
 70
8
 71
3
 72
8
 73
4
 74
0
 40
0
 40
0
 40
0
 40
0
 40
1
 40
1
 40
1
 40
1
 10
337.045522
 20
563.912696
 30
0.0
 10
337.508003
 20
562.005696
 30
0.0
 10
339.215427
 20
560.662858
 30
0.0
 10
341.177706
 20
560.662856
 30
0.0
  0
SPLINE
  5
198
100
AcDbEntity
  8
Layer_1
 62
1
100
AcDbSpline
 70
8
 71
3
 72
8
 73
4
 74
0
 40
0
 40
0
 40
0
 40
0
 40
1
 40
1
 40
1
 40
1
 10
400.764206
 20
563.912696
 30
0.0
 10
401.995593
 20
568.990143
 30
0.0
 10
401.995593
 20
574.288369
 30
0.0
 10
400.764206
 20
579.365816
 30
0.0
  0
LWPOLYLINE
  5
199
100
AcDbEntity
  8
Layer_1
 62
1
100
AcDbPolyline
 90
2
 70
0
 10
357.928481
 20
543.912056
 30
0.0
 10
357.928481
 20
556.410936
 30
0.0
  0
SPLINE
  5
19a
100
AcDbEntity
  8
Layer_1
 62
1
100
AcDbSpline
 70
8
 71
3
 72
8
 73
4
 74
0
 40
0
 40
0
 40
0
 40
0
 40
1
 40
1
 40
1
 40
1
 10
283.469536
 20
698.448810
 30
0.0
 10
285.401344
 20
698.448810
 30
0.0
 10
286.969536
 20
696.880618
 30
0.0
 10
286.969536
 20
694.948802
 30
0.0
  0
SPLINE
  5
19b
100
AcDbEntity
  8
Layer_1
 62
1
100
AcDbSpline
 70
8
 71
3
 72
8
 73
4
 74
0
 40
0
 40
0
 40
0
 40
0
 40
1
 40
1
 40
1
 40
1
 10
286.969536
 20
694.948802
 30
0.0
 10
286.969536
 20
693.016994
 30
0.0
 10
285.401344
 20
691.448802
 30
0.0
 10
283.469536
 20
691.448802
 30
0.0
  0
SPLINE
  5
19c
100
AcDbEntity
  8
Layer_1
 62
1
100
AcDbSpline
 70
8
 71
3
 72
8
 73
4
 74
0
 40
0
 40
0
 40
0
 40
0
 40
1
 40
1
 40
1
 40
1
 10
283.469536
 20
691.448802
 30
0.0
 10
281.537728
 20
691.448802
 30
0.0
 10
279.969536
 20
693.016994
 30
0.0
 10
279.969536
 20
694.948802
 30
0.0
  0
SPLINE
  5
19d
100
AcDbEntity
  8
Layer_1
 62
1
100
AcDbSpline
 70
8
 71
3
 72
8
 73
4
 74
0
 40
0
 40
0
 40
0
 40
0
 40
1
 40
1
 40
1
 40
1
 10
279.969536
 20
694.948802
 30
0.0
 10
279.969536
 20
696.880618
 30
0.0
 10
281.537728
 20
698.448810
 30
0.0
 10
283.469536
 20
698.448810
 30
0.0
  0
LWPOLYLINE
  5
19e
100
AcDbEntity
  8
Layer_1
 62
3
100
AcDbPolyline
 90
5
 70
1
 10
245.539064
 20
752.547216
 30
0.0
 10
493.865624
 20
752.547216
 30
0.0
 10
493.865624
 20
514.260568
 30
0.0
 10
245.539064
 20
514.260568
 30
0.0
 10
245.539064
 20
752.547216
 30
0.0
  0
SPLINE
  5
19f
100
AcDbEntity
  8
Layer_1
 62
1
100
AcDbSpline
 70
8
 71
3
 72
8
 73
4
 74
0
 40
0
 40
0
 40
0
 40
0
 40
1
 40
1
 40
1
 40
1
 10
283.469536
 20
704.667834
 30
0.0
 10
288.833880
 20
704.667834
 30
0.0
 10
293.188544
 20
700.313178
 30
0.0
 10
293.188544
 20
694.948794
 30
0.0
  0
SPLINE
  5
1a0
100
AcDbEntity
  8
Layer_1
 62
1
100
AcDbSpline
 70
8
 71
3
 72
8
 73
4
 74
0
 40
0
 40
0
 40
0
 40
0
 40
1
 40
1
 40
1
 40
1
 10
293.188544
 20
694.948794
 30
0.0
 10
293.188544
 20
689.584434
 30
0.0
 10
288.833880
 20
685.229786
 30
0.0
 10
283.469536
 20
685.229786
 30
0.0
  0
SPLINE
  5
1a1
100
AcDbEntity
  8
Layer_1
 62
1
100
AcDbSpline
 70
8
 71
3
 72
8
 73
4
 74
0
 40
0
 40
0
 40
0
 40
0
 40
1
 40
1
 40
1
 40
1
 10
283.469536
 20
685.229786
 30
0.0
 10
278.105176
 20
685.229786
 30
0.0
 10
273.750528
 20
689.584434
 30
0.0
 10
273.750528
 20
694.948794
 30
0.0
  0
SPLINE
  5
1a2
100
AcDbEntity
  8
Layer_1
 62
1
100
AcDbSpline
 70
8
 71
3
 72
8
 73
4
 74
0
 40
0
 40
0
 40
0
 40
0
 40
1
 40
1
 40
1
 40
1
 10
273.750528
 20
694.948794
 30
0.0
 10
273.750528
 20
700.313178
 30
0.0
 10
278.105176
 20
704.667834
 30
0.0
 10
283.469536
 20
704.667834
 30
0.0
  0
LWPOLYLINE
  5
1a3
100
AcDbEntity
  8
Layer_1
 62
1
100
AcDbPolyline
 90
2
 70
1
 10
283.469536
 20
698.448810
 30
0.0
 10
283.469536
 20
698.448810
 30
0.0
  0
SPLINE
  5
1a4
100
AcDbEntity
  8
Layer_1
 62
1
100
AcDbSpline
 70
8
 71
3
 72
8
 73
4
 74
0
 40
0
 40
0
 40
0
 40
0
 40
1
 40
1
 40
1
 40
1
 10
307.991016
 20
698.448810
 30
0.0
 10
309.922824
 20
698.448810
 30
0.0
 10
311.491016
 20
696.880618
 30
0.0
 10
311.491016
 20
694.948802
 30
0.0
  0
SPLINE
  5
1a5
100
AcDbEntity
  8
Layer_1
 62
1
100
AcDbSpline
 70
8
 71
3
 72
8
 73
4
 74
0
 40
0
 40
0
 40
0
 40
0
 40
1
 40
1
 40
1
 40
1
 10
311.491016
 20
694.948802
 30
0.0
 10
311.491016
 20
693.016994
 30
0.0
 10
309.922824
 20
691.448802
 30
0.0
 10
307.991016
 20
691.448802
 30
0.0
  0
SPLINE
  5
1a6
100
AcDbEntity
  8
Layer_1
 62
1
100
AcDbSpline
 70
8
 71
3
 72
8
 73
4
 74
0
 40
0
 40
0
 40
0
 40
0
 40
1
 40
1
 40
1
 40
1
 10
307.991016
 20
691.448802
 30
0.0
 10
306.059208
 20
691.448802
 30
0.0
 10
304.491016
 20
693.016994
 30
0.0
 10
304.491016
 20
694.948802
 30
0.0
  0
SPLINE
  5
1a7
100
AcDbEntity
  8
Layer_1
 62
1
100
AcDbSpline
 70
8
 71
3
 72
8
 73
4
 74
0
 40
0
 40
0
 40
0
 40
0
 40
1
 40
1
 40
1
 40
1
 10
304.491016
 20
694.948802
 30
0.0
 10
304.491016
 20
696.880618
 30
0.0
 10
306.059208
 20
698.448810
 30
0.0
 10
307.991016
 20
698.448810
 30
0.0
  0
LWPOLYLINE
  5
1a8
100
AcDbEntity
  8
Layer_1
 62
1
100
AcDbPolyline
 90
2
 70
1
 10
283.469536
 20
704.667834
 30
0.0
 10
283.469536
 20
704.667834
 30
0.0
  0
SPLINE
  5
1a9
100
AcDbEntity
  8
Layer_1
 62
1
100
AcDbSpline
 70
8
 71
3
 72
8
 73
4
 74
0
 40
0
 40
0
 40
0
 40
0
 40
1
 40
1
 40
1
 40
1
 10
307.991016
 20
704.667834
 30
0.0
 10
313.355360
 20
704.667834
 30
0.0
 10
317.710024
 20
700.313178
 30
0.0
 10
317.710024
 20
694.948794
 30
0.0
  0
SPLINE
  5
1aa
100
AcDbEntity
  8
Layer_1
 62
1
100
AcDbSpline
 70
8
 71
3
 72
8
 73
4
 74
0
 40
0
 40
0
 40
0
 40
0
 40
1
 40
1
 40
1
 40
1
 10
317.710024
 20
694.948794
 30
0.0
 10
317.710024
 20
689.584434
 30
0.0
 10
313.355360
 20
685.229786
 30
0.0
 10
307.991016
 20
685.229786
 30
0.0
  0
SPLINE
  5
1ab
100
AcDbEntity
  8
Layer_1
 62
1
100
AcDbSpline
 70
8
 71
3
 72
8
 73
4
 74
0
 40
0
 40
0
 40
0
 40
0
 40
1
 40
1
 40
1
 40
1
 10
307.991016
 20
685.229786
 30
0.0
 10
302.626656
 20
685.229786
 30
0.0
 10
298.272008
 20
689.584434
 30
0.0
 10
298.272008
 20
694.948794
 30
0.0
  0
SPLINE
  5
1ac
100
AcDbEntity
  8
Layer_1
 62
1
100
AcDbSpline
 70
8
 71
3
 72
8
 73
4
 74
0
 40
0
 40
0
 40
0
 40
0
 40
1
 40
1
 40
1
 40
1
 10
298.272008
 20
694.948794
 30
0.0
 10
298.272008
 20
700.313178
 30
0.0
 10
302.626656
 20
704.667834
 30
0.0
 10
307.991016
 20
704.667834
 30
0.0
  0
LWPOLYLINE
  5
1ad
100
AcDbEntity
  8
Layer_1
 62
1
100
AcDbPolyline
 90
2
 70
1
 10
307.991016
 20
698.448810
 30
0.0
 10
307.991016
 20
698.448810
 30
0.0
  0
SPLINE
  5
1ae
100
AcDbEntity
  8
Layer_1
 62
1
100
AcDbSpline
 70
8
 71
3
 72
8
 73
4
 74
0
 40
0
 40
0
 40
0
 40
0
 40
1
 40
1
 40
1
 40
1
 10
332.512496
 20
698.448810
 30
0.0
 10
334.444304
 20
698.448810
 30
0.0
 10
336.012496
 20
696.880618
 30
0.0
 10
336.012496
 20
694.948802
 30
0.0
  0
SPLINE
  5
1af
100
AcDbEntity
  8
Layer_1
 62
1
100
AcDbSpline
 70
8
 71
3
 72
8
 73
4
 74
0
 40
0
 40
0
 40
0
 40
0
 40
1
 40
1
 40
1
 40
1
 10
336.012496
 20
694.948802
 30
0.0
 10
336.012496
 20
693.016994
 30
0.0
 10
334.444304
 20
691.448802
 30
0.0
 10
332.512496
 20
691.448802
 30
0.0
  0
SPLINE
  5
1b0
100
AcDbEntity
  8
Layer_1
 62
1
100
AcDbSpline
 70
8
 71
3
 72
8
 73
4
 74
0
 40
0
 40
0
 40
0
 40
0
 40
1
 40
1
 40
1
 40
1
 10
332.512496
 20
691.448802
 30
0.0
 10
330.580688
 20
691.448802
 30
0.0
 10
329.012496
 20
693.016994
 30
0.0
 10
329.012496
 20
694.948802
 30
0.0
  0
SPLINE
  5
1b1
100
AcDbEntity
  8
Layer_1
 62
1
100
AcDbSpline
 70
8
 71
3
 72
8
 73
4
 74
0
 40
0
 40
0
 40
0
 40
0
 40
1
 40
1
 40
1
 40
1
 10
329.012496
 20
694.948802
 30
0.0
 10
329.012496
 20
696.880618
 30
0.0
 10
330.580688
 20
698.448810
 30
0.0
 10
332.512496
 20
698.448810
 30
0.0
  0
LWPOLYLINE
  5
1b2
100
AcDbEntity
  8
Layer_1
 62
1
100
AcDbPolyline
 90
2
 70
1
 10
307.991016
 20
704.667834
 30
0.0
 10
307.991016
 20
704.667834
 30
0.0
  0
SPLINE
  5
1b3
100
AcDbEntity
  8
Layer_1
 62
1
100
AcDbSpline
 70
8
 71
3
 72
8
 73
4
 74
0
 40
0
 40
0
 40
0
 40
0
 40
1
 40
1
 40
1
 40
1
 10
332.512496
 20
704.667834
 30
0.0
 10
337.876840
 20
704.667834
 30
0.0
 10
342.231504
 20
700.313178
 30
0.0
 10
342.231504
 20
694.948794
 30
0.0
  0
SPLINE
  5
1b4
100
AcDbEntity
  8
Layer_1
 62
1
100
AcDbSpline
 70
8
 71
3
 72
8
 73
4
 74
0
 40
0
 40
0
 40
0
 40
0
 40
1
 40
1
 40
1
 40
1
 10
342.231504
 20
694.948794
 30
0.0
 10
342.231504
 20
689.584434
 30
0.0
 10
337.876840
 20
685.229786
 30
0.0
 10
332.512496
 20
685.229786
 30
0.0
  0
SPLINE
  5
1b5
100
AcDbEntity
  8
Layer_1
 62
1
100
AcDbSpline
 70
8
 71
3
 72
8
 73
4
 74
0
 40
0
 40
0
 40
0
 40
0
 40
1
 40
1
 40
1
 40
1
 10
332.512496
 20
685.229786
 30
0.0
 10
327.148136
 20
685.229786
 30
0.0
 10
322.793488
 20
689.584434
 30
0.0
 10
322.793488
 20
694.948794
 30
0.0
  0
SPLINE
  5
1b6
100
AcDbEntity
  8
Layer_1
 62
1
100
AcDbSpline
 70
8
 71
3
 72
8
 73
4
 74
0
 40
0
 40
0
 40
0
 40
0
 40
1
 40
1
 40
1
 40
1
 10
322.793488
 20
694.948794
 30
0.0
 10
322.793488
 20
700.313178
 30
0.0
 10
327.148136
 20
704.667834
 30
0.0
 10
332.512496
 20
704.667834
 30
0.0
  0
LWPOLYLINE
  5
1b7
100
AcDbEntity
  8
Layer_1
 62
1
100
AcDbPolyline
 90
2
 70
1
 10
332.512496
 20
698.448810
 30
0.0
 10
332.512496
 20
698.448810
 30
0.0
  0
SPLINE
  5
1b8
100
AcDbEntity
  8
Layer_1
 62
1
100
AcDbSpline
 70
8
 71
3
 72
8
 73
4
 74
0
 40
0
 40
0
 40
0
 40
0
 40
1
 40
1
 40
1
 40
1
 10
357.033976
 20
698.448810
 30
0.0
 10
358.965784
 20
698.448810
 30
0.0
 10
360.533976
 20
696.880618
 30
0.0
 10
360.533976
 20
694.948802
 30
0.0
  0
SPLINE
  5
1b9
100
AcDbEntity
  8
Layer_1
 62
1
100
AcDbSpline
 70
8
 71
3
 72
8
 73
4
 74
0
 40
0
 40
0
 40
0
 40
0
 40
1
 40
1
 40
1
 40
1
 10
360.533976
 20
694.948802
 30
0.0
 10
360.533976
 20
693.016994
 30
0.0
 10
358.965784
 20
691.448802
 30
0.0
 10
357.033976
 20
691.448802
 30
0.0
  0
SPLINE
  5
1ba
100
AcDbEntity
  8
Layer_1
 62
1
100
AcDbSpline
 70
8
 71
3
 72
8
 73
4
 74
0
 40
0
 40
0
 40
0
 40
0
 40
1
 40
1
 40
1
 40
1
 10
357.033976
 20
691.448802
 30
0.0
 10
355.102168
 20
691.448802
 30
0.0
 10
353.533976
 20
693.016994
 30
0.0
 10
353.533976
 20
694.948802
 30
0.0
  0
SPLINE
  5
1bb
100
AcDbEntity
  8
Layer_1
 62
1
100
AcDbSpline
 70
8
 71
3
 72
8
 73
4
 74
0
 40
0
 40
0
 40
0
 40
0
 40
1
 40
1
 40
1
 40
1
 10
353.533976
 20
694.948802
 30
0.0
 10
353.533976
 20
696.880618
 30
0.0
 10
355.102168
 20
698.448810
 30
0.0
 10
357.033976
 20
698.448810
 30
0.0
  0
LWPOLYLINE
  5
1bc
100
AcDbEntity
  8
Layer_1
 62
1
100
AcDbPolyline
 90
2
 70
1
 10
332.512496
 20
704.667834
 30
0.0
 10
332.512496
 20
704.667834
 30
0.0
  0
SPLINE
  5
1bd
100
AcDbEntity
  8
Layer_1
 62
1
100
AcDbSpline
 70
8
 71
3
 72
8
 73
4
 74
0
 40
0
 40
0
 40
0
 40
0
 40
1
 40
1
 40
1
 40
1
 10
357.033976
 20
704.667834
 30
0.0
 10
362.398320
 20
704.667834
 30
0.0
 10
366.752984
 20
700.313178
 30
0.0
 10
366.752984
 20
694.948794
 30
0.0
  0
SPLINE
  5
1be
100
AcDbEntity
  8
Layer_1
 62
1
100
AcDbSpline
 70
8
 71
3
 72
8
 73
4
 74
0
 40
0
 40
0
 40
0
 40
0
 40
1
 40
1
 40
1
 40
1
 10
366.752984
 20
694.948794
 30
0.0
 10
366.752984
 20
689.584434
 30
0.0
 10
362.398320
 20
685.229786
 30
0.0
 10
357.033976
 20
685.229786
 30
0.0
  0
SPLINE
  5
1bf
100
AcDbEntity
  8
Layer_1
 62
1
100
AcDbSpline
 70
8
 71
3
 72
8
 73
4
 74
0
 40
0
 40
0
 40
0
 40
0
 40
1
 40
1
 40
1
 40
1
 10
357.033976
 20
685.229786
 30
0.0
 10
351.669616
 20
685.229786
 30
0.0
 10
347.314968
 20
689.584434
 30
0.0
 10
347.314968
 20
694.948794
 30
0.0
  0
SPLINE
  5
1c0
100
AcDbEntity
  8
Layer_1
 62
1
100
AcDbSpline
 70
8
 71
3
 72
8
 73
4
 74
0
 40
0
 40
0
 40
0
 40
0
 40
1
 40
1
 40
1
 40
1
 10
347.314968
 20
694.948794
 30
0.0
 10
347.314968
 20
700.313178
 30
0.0
 10
351.669616
 20
704.667834
 30
0.0
 10
357.033976
 20
704.667834
 30
0.0
  0
LWPOLYLINE
  5
1c1
100
AcDbEntity
  8
Layer_1
 62
1
100
AcDbPolyline
 90
2
 70
1
 10
357.033976
 20
698.448810
 30
0.0
 10
357.033976
 20
698.448810
 30
0.0
  0
SPLINE
  5
1c2
100
AcDbEntity
  8
Layer_1
 62
1
100
AcDbSpline
 70
8
 71
3
 72
8
 73
4
 74
0
 40
0
 40
0
 40
0
 40
0
 40
1
 40
1
 40
1
 40
1
 10
283.469536
 20
673.927298
 30
0.0
 10
285.401344
 20
673.927298
 30
0.0
 10
286.969536
 20
672.359106
 30
0.0
 10
286.969536
 20
670.427290
 30
0.0
  0
SPLINE
  5
1c3
100
AcDbEntity
  8
Layer_1
 62
1
100
AcDbSpline
 70
8
 71
3
 72
8
 73
4
 74
0
 40
0
 40
0
 40
0
 40
0
 40
1
 40
1
 40
1
 40
1
 10
286.969536
 20
670.427290
 30
0.0
 10
286.969536
 20
668.495482
 30
0.0
 10
285.401344
 20
666.927290
 30
0.0
 10
283.469536
 20
666.927290
 30
0.0
  0
SPLINE
  5
1c4
100
AcDbEntity
  8
Layer_1
 62
1
100
AcDbSpline
 70
8
 71
3
 72
8
 73
4
 74
0
 40
0
 40
0
 40
0
 40
0
 40
1
 40
1
 40
1
 40
1
 10
283.469536
 20
666.927290
 30
0.0
 10
281.537728
 20
666.927290
 30
0.0
 10
279.969536
 20
668.495482
 30
0.0
 10
279.969536
 20
670.427290
 30
0.0
  0
SPLINE
  5
1c5
100
AcDbEntity
  8
Layer_1
 62
1
100
AcDbSpline
 70
8
 71
3
 72
8
 73
4
 74
0
 40
0
 40
0
 40
0
 40
0
 40
1
 40
1
 40
1
 40
1
 10
279.969536
 20
670.427290
 30
0.0
 10
279.969536
 20
672.359106
 30
0.0
 10
281.537728
 20
673.927298
 30
0.0
 10
283.469536
 20
673.927298
 30
0.0
  0
LWPOLYLINE
  5
1c6
100
AcDbEntity
  8
Layer_1
 62
1
100
AcDbPolyline
 90
2
 70
1
 10
357.033976
 20
704.667834
 30
0.0
 10
357.033976
 20
704.667834
 30
0.0
  0
SPLINE
  5
1c7
100
AcDbEntity
  8
Layer_1
 62
1
100
AcDbSpline
 70
8
 71
3
 72
8
 73
4
 74
0
 40
0
 40
0
 40
0
 40
0
 40
1
 40
1
 40
1
 40
1
 10
283.469536
 20
680.146322
 30
0.0
 10
288.833880
 20
680.146322
 30
0.0
 10
293.188544
 20
675.791666
 30
0.0
 10
293.188544
 20
670.427282
 30
0.0
  0
SPLINE
  5
1c8
100
AcDbEntity
  8
Layer_1
 62
1
100
AcDbSpline
 70
8
 71
3
 72
8
 73
4
 74
0
 40
0
 40
0
 40
0
 40
0
 40
1
 40
1
 40
1
 40
1
 10
293.188544
 20
670.427282
 30
0.0
 10
293.188544
 20
665.062922
 30
0.0
 10
288.833880
 20
660.708274
 30
0.0
 10
283.469536
 20
660.708274
 30
0.0
  0
SPLINE
  5
1c9
100
AcDbEntity
  8
Layer_1
 62
1
100
AcDbSpline
 70
8
 71
3
 72
8
 73
4
 74
0
 40
0
 40
0
 40
0
 40
0
 40
1
 40
1
 40
1
 40
1
 10
283.469536
 20
660.708274
 30
0.0
 10
278.105176
 20
660.708274
 30
0.0
 10
273.750528
 20
665.062922
 30
0.0
 10
273.750528
 20
670.427282
 30
0.0
  0
SPLINE
  5
1ca
100
AcDbEntity
  8
Layer_1
 62
1
100
AcDbSpline
 70
8
 71
3
 72
8
 73
4
 74
0
 40
0
 40
0
 40
0
 40
0
 40
1
 40
1
 40
1
 40
1
 10
273.750528
 20
670.427282
 30
0.0
 10
273.750528
 20
675.791666
 30
0.0
 10
278.105176
 20
680.146322
 30
0.0
 10
283.469536
 20
680.146322
 30
0.0
  0
LWPOLYLINE
  5
1cb
100
AcDbEntity
  8
Layer_1
 62
1
100
AcDbPolyline
 90
2
 70
1
 10
283.469536
 20
673.927298
 30
0.0
 10
283.469536
 20
673.927298
 30
0.0
  0
SPLINE
  5
1cc
100
AcDbEntity
  8
Layer_1
 62
1
100
AcDbSpline
 70
8
 71
3
 72
8
 73
4
 74
0
 40
0
 40
0
 40
0
 40
0
 40
1
 40
1
 40
1
 40
1
 10
307.991016
 20
673.927298
 30
0.0
 10
309.922824
 20
673.927298
 30
0.0
 10
311.491016
 20
672.359106
 30
0.0
 10
311.491016
 20
670.427290
 30
0.0
  0
SPLINE
  5
1cd
100
AcDbEntity
  8
Layer_1
 62
1
100
AcDbSpline
 70
8
 71
3
 72
8
 73
4
 74
0
 40
0
 40
0
 40
0
 40
0
 40
1
 40
1
 40
1
 40
1
 10
311.491016
 20
670.427290
 30
0.0
 10
311.491016
 20
668.495482
 30
0.0
 10
309.922824
 20
666.927290
 30
0.0
 10
307.991016
 20
666.927290
 30
0.0
  0
SPLINE
  5
1ce
100
AcDbEntity
  8
Layer_1
 62
1
100
AcDbSpline
 70
8
 71
3
 72
8
 73
4
 74
0
 40
0
 40
0
 40
0
 40
0
 40
1
 40
1
 40
1
 40
1
 10
307.991016
 20
666.927290
 30
0.0
 10
306.059208
 20
666.927290
 30
0.0
 10
304.491016
 20
668.495482
 30
0.0
 10
304.491016
 20
670.427290
 30
0.0
  0
SPLINE
  5
1cf
100
AcDbEntity
  8
Layer_1
 62
1
100
AcDbSpline
 70
8
 71
3
 72
8
 73
4
 74
0
 40
0
 40
0
 40
0
 40
0
 40
1
 40
1
 40
1
 40
1
 10
304.491016
 20
670.427290
 30
0.0
 10
304.491016
 20
672.359106
 30
0.0
 10
306.059208
 20
673.927298
 30
0.0
 10
307.991016
 20
673.927298
 30
0.0
  0
LWPOLYLINE
  5
1d0
100
AcDbEntity
  8
Layer_1
 62
1
100
AcDbPolyline
 90
2
 70
1
 10
283.469536
 20
680.146322
 30
0.0
 10
283.469536
 20
680.146322
 30
0.0
  0
SPLINE
  5
1d1
100
AcDbEntity
  8
Layer_1
 62
1
100
AcDbSpline
 70
8
 71
3
 72
8
 73
4
 74
0
 40
0
 40
0
 40
0
 40
0
 40
1
 40
1
 40
1
 40
1
 10
307.991016
 20
680.146322
 30
0.0
 10
313.355360
 20
680.146322
 30
0.0
 10
317.710024
 20
675.791666
 30
0.0
 10
317.710024
 20
670.427282
 30
0.0
  0
SPLINE
  5
1d2
100
AcDbEntity
  8
Layer_1
 62
1
100
AcDbSpline
 70
8
 71
3
 72
8
 73
4
 74
0
 40
0
 40
0
 40
0
 40
0
 40
1
 40
1
 40
1
 40
1
 10
317.710024
 20
670.427282
 30
0.0
 10
317.710024
 20
665.062922
 30
0.0
 10
313.355360
 20
660.708274
 30
0.0
 10
307.991016
 20
660.708274
 30
0.0
  0
SPLINE
  5
1d3
100
AcDbEntity
  8
Layer_1
 62
1
100
AcDbSpline
 70
8
 71
3
 72
8
 73
4
 74
0
 40
0
 40
0
 40
0
 40
0
 40
1
 40
1
 40
1
 40
1
 10
307.991016
 20
660.708274
 30
0.0
 10
302.626656
 20
660.708274
 30
0.0
 10
298.272008
 20
665.062922
 30
0.0
 10
298.272008
 20
670.427282
 30
0.0
  0
SPLINE
  5
1d4
100
AcDbEntity
  8
Layer_1
 62
1
100
AcDbSpline
 70
8
 71
3
 72
8
 73
4
 74
0
 40
0
 40
0
 40
0
 40
0
 40
1
 40
1
 40
1
 40
1
 10
298.272008
 20
670.427282
 30
0.0
 10
298.272008
 20
675.791666
 30
0.0
 10
302.626656
 20
680.146322
 30
0.0
 10
307.991016
 20
680.146322
 30
0.0
  0
LWPOLYLINE
  5
1d5
100
AcDbEntity
  8
Layer_1
 62
1
100
AcDbPolyline
 90
2
 70
1
 10
307.991016
 20
673.927298
 30
0.0
 10
307.991016
 20
673.927298
 30
0.0
  0
SPLINE
  5
1d6
100
AcDbEntity
  8
Layer_1
 62
1
100
AcDbSpline
 70
8
 71
3
 72
8
 73
4
 74
0
 40
0
 40
0
 40
0
 40
0
 40
1
 40
1
 40
1
 40
1
 10
332.512496
 20
673.927298
 30
0.0
 10
334.444304
 20
673.927298
 30
0.0
 10
336.012496
 20
672.359106
 30
0.0
 10
336.012496
 20
670.427290
 30
0.0
  0
SPLINE
  5
1d7
100
AcDbEntity
  8
Layer_1
 62
1
100
AcDbSpline
 70
8
 71
3
 72
8
 73
4
 74
0
 40
0
 40
0
 40
0
 40
0
 40
1
 40
1
 40
1
 40
1
 10
336.012496
 20
670.427290
 30
0.0
 10
336.012496
 20
668.495482
 30
0.0
 10
334.444304
 20
666.927290
 30
0.0
 10
332.512496
 20
666.927290
 30
0.0
  0
SPLINE
  5
1d8
100
AcDbEntity
  8
Layer_1
 62
1
100
AcDbSpline
 70
8
 71
3
 72
8
 73
4
 74
0
 40
0
 40
0
 40
0
 40
0
 40
1
 40
1
 40
1
 40
1
 10
332.512496
 20
666.927290
 30
0.0
 10
330.580688
 20
666.927290
 30
0.0
 10
329.012496
 20
668.495482
 30
0.0
 10
329.012496
 20
670.427290
 30
0.0
  0
SPLINE
  5
1d9
100
AcDbEntity
  8
Layer_1
 62
1
100
AcDbSpline
 70
8
 71
3
 72
8
 73
4
 74
0
 40
0
 40
0
 40
0
 40
0
 40
1
 40
1
 40
1
 40
1
 10
329.012496
 20
670.427290
 30
0.0
 10
329.012496
 20
672.359106
 30
0.0
 10
330.580688
 20
673.927298
 30
0.0
 10
332.512496
 20
673.927298
 30
0.0
  0
LWPOLYLINE
  5
1da
100
AcDbEntity
  8
Layer_1
 62
1
100
AcDbPolyline
 90
2
 70
1
 10
307.991016
 20
680.146322
 30
0.0
 10
307.991016
 20
680.146322
 30
0.0
  0
SPLINE
  5
1db
100
AcDbEntity
  8
Layer_1
 62
1
100
AcDbSpline
 70
8
 71
3
 72
8
 73
4
 74
0
 40
0
 40
0
 40
0
 40
0
 40
1
 40
1
 40
1
 40
1
 10
332.512496
 20
680.146322
 30
0.0
 10
337.876840
 20
680.146322
 30
0.0
 10
342.231504
 20
675.791666
 30
0.0
 10
342.231504
 20
670.427282
 30
0.0
  0
SPLINE
  5
1dc
100
AcDbEntity
  8
Layer_1
 62
1
100
AcDbSpline
 70
8
 71
3
 72
8
 73
4
 74
0
 40
0
 40
0
 40
0
 40
0
 40
1
 40
1
 40
1
 40
1
 10
342.231504
 20
670.427282
 30
0.0
 10
342.231504
 20
665.062922
 30
0.0
 10
337.876840
 20
660.708274
 30
0.0
 10
332.512496
 20
660.708274
 30
0.0
  0
SPLINE
  5
1dd
100
AcDbEntity
  8
Layer_1
 62
1
100
AcDbSpline
 70
8
 71
3
 72
8
 73
4
 74
0
 40
0
 40
0
 40
0
 40
0
 40
1
 40
1
 40
1
 40
1
 10
332.512496
 20
660.708274
 30
0.0
 10
327.148136
 20
660.708274
 30
0.0
 10
322.793488
 20
665.062922
 30
0.0
 10
322.793488
 20
670.427282
 30
0.0
  0
SPLINE
  5
1de
100
AcDbEntity
  8
Layer_1
 62
1
100
AcDbSpline
 70
8
 71
3
 72
8
 73
4
 74
0
 40
0
 40
0
 40
0
 40
0
 40
1
 40
1
 40
1
 40
1
 10
322.793488
 20
670.427282
 30
0.0
 10
322.793488
 20
675.791666
 30
0.0
 10
327.148136
 20
680.146322
 30
0.0
 10
332.512496
 20
680.146322
 30
0.0
  0
LWPOLYLINE
  5
1df
100
AcDbEntity
  8
Layer_1
 62
1
100
AcDbPolyline
 90
2
 70
1
 10
332.512496
 20
673.927298
 30
0.0
 10
332.512496
 20
673.927298
 30
0.0
  0
SPLINE
  5
1e0
100
AcDbEntity
  8
Layer_1
 62
1
100
AcDbSpline
 70
8
 71
3
 72
8
 73
4
 74
0
 40
0
 40
0
 40
0
 40
0
 40
1
 40
1
 40
1
 40
1
 10
357.033976
 20
673.927298
 30
0.0
 10
358.965784
 20
673.927298
 30
0.0
 10
360.533976
 20
672.359106
 30
0.0
 10
360.533976
 20
670.427290
 30
0.0
  0
SPLINE
  5
1e1
100
AcDbEntity
  8
Layer_1
 62
1
100
AcDbSpline
 70
8
 71
3
 72
8
 73
4
 74
0
 40
0
 40
0
 40
0
 40
0
 40
1
 40
1
 40
1
 40
1
 10
360.533976
 20
670.427290
 30
0.0
 10
360.533976
 20
668.495482
 30
0.0
 10
358.965784
 20
666.927290
 30
0.0
 10
357.033976
 20
666.927290
 30
0.0
  0
SPLINE
  5
1e2
100
AcDbEntity
  8
Layer_1
 62
1
100
AcDbSpline
 70
8
 71
3
 72
8
 73
4
 74
0
 40
0
 40
0
 40
0
 40
0
 40
1
 40
1
 40
1
 40
1
 10
357.033976
 20
666.927290
 30
0.0
 10
355.102168
 20
666.927290
 30
0.0
 10
353.533976
 20
668.495482
 30
0.0
 10
353.533976
 20
670.427290
 30
0.0
  0
SPLINE
  5
1e3
100
AcDbEntity
  8
Layer_1
 62
1
100
AcDbSpline
 70
8
 71
3
 72
8
 73
4
 74
0
 40
0
 40
0
 40
0
 40
0
 40
1
 40
1
 40
1
 40
1
 10
353.533976
 20
670.427290
 30
0.0
 10
353.533976
 20
672.359106
 30
0.0
 10
355.102168
 20
673.927298
 30
0.0
 10
357.033976
 20
673.927298
 30
0.0
  0
LWPOLYLINE
  5
1e4
100
AcDbEntity
  8
Layer_1
 62
1
100
AcDbPolyline
 90
2
 70
1
 10
332.512496
 20
680.146322
 30
0.0
 10
332.512496
 20
680.146322
 30
0.0
  0
SPLINE
  5
1e5
100
AcDbEntity
  8
Layer_1
 62
1
100
AcDbSpline
 70
8
 71
3
 72
8
 73
4
 74
0
 40
0
 40
0
 40
0
 40
0
 40
1
 40
1
 40
1
 40
1
 10
357.033976
 20
680.146322
 30
0.0
 10
362.398320
 20
680.146322
 30
0.0
 10
366.752984
 20
675.791666
 30
0.0
 10
366.752984
 20
670.427282
 30
0.0
  0
SPLINE
  5
1e6
100
AcDbEntity
  8
Layer_1
 62
1
100
AcDbSpline
 70
8
 71
3
 72
8
 73
4
 74
0
 40
0
 40
0
 40
0
 40
0
 40
1
 40
1
 40
1
 40
1
 10
366.752984
 20
670.427282
 30
0.0
 10
366.752984
 20
665.062922
 30
0.0
 10
362.398320
 20
660.708274
 30
0.0
 10
357.033976
 20
660.708274
 30
0.0
  0
SPLINE
  5
1e7
100
AcDbEntity
  8
Layer_1
 62
1
100
AcDbSpline
 70
8
 71
3
 72
8
 73
4
 74
0
 40
0
 40
0
 40
0
 40
0
 40
1
 40
1
 40
1
 40
1
 10
357.033976
 20
660.708274
 30
0.0
 10
351.669616
 20
660.708274
 30
0.0
 10
347.314968
 20
665.062922
 30
0.0
 10
347.314968
 20
670.427282
 30
0.0
  0
SPLINE
  5
1e8
100
AcDbEntity
  8
Layer_1
 62
1
100
AcDbSpline
 70
8
 71
3
 72
8
 73
4
 74
0
 40
0
 40
0
 40
0
 40
0
 40
1
 40
1
 40
1
 40
1
 10
347.314968
 20
670.427282
 30
0.0
 10
347.314968
 20
675.791666
 30
0.0
 10
351.669616
 20
680.146322
 30
0.0
 10
357.033976
 20
680.146322
 30
0.0
  0
LWPOLYLINE
  5
1e9
100
AcDbEntity
  8
Layer_1
 62
1
100
AcDbPolyline
 90
2
 70
1
 10
357.033976
 20
673.927298
 30
0.0
 10
357.033976
 20
673.927298
 30
0.0
  0
SPLINE
  5
1ea
100
AcDbEntity
  8
Layer_1
 62
1
100
AcDbSpline
 70
8
 71
3
 72
8
 73
4
 74
0
 40
0
 40
0
 40
0
 40
0
 40
1
 40
1
 40
1
 40
1
 10
283.469536
 20
649.405786
 30
0.0
 10
285.401344
 20
649.405786
 30
0.0
 10
286.969536
 20
647.837594
 30
0.0
 10
286.969536
 20
645.905778
 30
0.0
  0
SPLINE
  5
1eb
100
AcDbEntity
  8
Layer_1
 62
1
100
AcDbSpline
 70
8
 71
3
 72
8
 73
4
 74
0
 40
0
 40
0
 40
0
 40
0
 40
1
 40
1
 40
1
 40
1
 10
286.969536
 20
645.905778
 30
0.0
 10
286.969536
 20
643.973970
 30
0.0
 10
285.401344
 20
642.405778
 30
0.0
 10
283.469536
 20
642.405778
 30
0.0
  0
SPLINE
  5
1ec
100
AcDbEntity
  8
Layer_1
 62
1
100
AcDbSpline
 70
8
 71
3
 72
8
 73
4
 74
0
 40
0
 40
0
 40
0
 40
0
 40
1
 40
1
 40
1
 40
1
 10
283.469536
 20
642.405778
 30
0.0
 10
281.537728
 20
642.405778
 30
0.0
 10
279.969536
 20
643.973970
 30
0.0
 10
279.969536
 20
645.905778
 30
0.0
  0
SPLINE
  5
1ed
100
AcDbEntity
  8
Layer_1
 62
1
100
AcDbSpline
 70
8
 71
3
 72
8
 73
4
 74
0
 40
0
 40
0
 40
0
 40
0
 40
1
 40
1
 40
1
 40
1
 10
279.969536
 20
645.905778
 30
0.0
 10
279.969536
 20
647.837594
 30
0.0
 10
281.537728
 20
649.405786
 30
0.0
 10
283.469536
 20
649.405786
 30
0.0
  0
LWPOLYLINE
  5
1ee
100
AcDbEntity
  8
Layer_1
 62
1
100
AcDbPolyline
 90
2
 70
1
 10
357.033976
 20
680.146322
 30
0.0
 10
357.033976
 20
680.146322
 30
0.0
  0
SPLINE
  5
1ef
100
AcDbEntity
  8
Layer_1
 62
1
100
AcDbSpline
 70
8
 71
3
 72
8
 73
4
 74
0
 40
0
 40
0
 40
0
 40
0
 40
1
 40
1
 40
1
 40
1
 10
283.469536
 20
655.624810
 30
0.0
 10
288.833880
 20
655.624810
 30
0.0
 10
293.188544
 20
651.270154
 30
0.0
 10
293.188544
 20
645.905770
 30
0.0
  0
SPLINE
  5
1f0
100
AcDbEntity
  8
Layer_1
 62
1
100
AcDbSpline
 70
8
 71
3
 72
8
 73
4
 74
0
 40
0
 40
0
 40
0
 40
0
 40
1
 40
1
 40
1
 40
1
 10
293.188544
 20
645.905770
 30
0.0
 10
293.188544
 20
640.541410
 30
0.0
 10
288.833880
 20
636.186762
 30
0.0
 10
283.469536
 20
636.186762
 30
0.0
  0
SPLINE
  5
1f1
100
AcDbEntity
  8
Layer_1
 62
1
100
AcDbSpline
 70
8
 71
3
 72
8
 73
4
 74
0
 40
0
 40
0
 40
0
 40
0
 40
1
 40
1
 40
1
 40
1
 10
283.469536
 20
636.186762
 30
0.0
 10
278.105176
 20
636.186762
 30
0.0
 10
273.750528
 20
640.541410
 30
0.0
 10
273.750528
 20
645.905770
 30
0.0
  0
SPLINE
  5
1f2
100
AcDbEntity
  8
Layer_1
 62
1
100
AcDbSpline
 70
8
 71
3
 72
8
 73
4
 74
0
 40
0
 40
0
 40
0
 40
0
 40
1
 40
1
 40
1
 40
1
 10
273.750528
 20
645.905770
 30
0.0
 10
273.750528
 20
651.270154
 30
0.0
 10
278.105176
 20
655.624810
 30
0.0
 10
283.469536
 20
655.624810
 30
0.0
  0
LWPOLYLINE
  5
1f3
100
AcDbEntity
  8
Layer_1
 62
1
100
AcDbPolyline
 90
2
 70
1
 10
283.469536
 20
649.405786
 30
0.0
 10
283.469536
 20
649.405786
 30
0.0
  0
SPLINE
  5
1f4
100
AcDbEntity
  8
Layer_1
 62
1
100
AcDbSpline
 70
8
 71
3
 72
8
 73
4
 74
0
 40
0
 40
0
 40
0
 40
0
 40
1
 40
1
 40
1
 40
1
 10
307.991016
 20
649.405786
 30
0.0
 10
309.922824
 20
649.405786
 30
0.0
 10
311.491016
 20
647.837594
 30
0.0
 10
311.491016
 20
645.905778
 30
0.0
  0
SPLINE
  5
1f5
100
AcDbEntity
  8
Layer_1
 62
1
100
AcDbSpline
 70
8
 71
3
 72
8
 73
4
 74
0
 40
0
 40
0
 40
0
 40
0
 40
1
 40
1
 40
1
 40
1
 10
311.491016
 20
645.905778
 30
0.0
 10
311.491016
 20
643.973970
 30
0.0
 10
309.922824
 20
642.405778
 30
0.0
 10
307.991016
 20
642.405778
 30
0.0
  0
SPLINE
  5
1f6
100
AcDbEntity
  8
Layer_1
 62
1
100
AcDbSpline
 70
8
 71
3
 72
8
 73
4
 74
0
 40
0
 40
0
 40
0
 40
0
 40
1
 40
1
 40
1
 40
1
 10
307.991016
 20
642.405778
 30
0.0
 10
306.059208
 20
642.405778
 30
0.0
 10
304.491016
 20
643.973970
 30
0.0
 10
304.491016
 20
645.905778
 30
0.0
  0
SPLINE
  5
1f7
100
AcDbEntity
  8
Layer_1
 62
1
100
AcDbSpline
 70
8
 71
3
 72
8
 73
4
 74
0
 40
0
 40
0
 40
0
 40
0
 40
1
 40
1
 40
1
 40
1
 10
304.491016
 20
645.905778
 30
0.0
 10
304.491016
 20
647.837594
 30
0.0
 10
306.059208
 20
649.405786
 30
0.0
 10
307.991016
 20
649.405786
 30
0.0
  0
LWPOLYLINE
  5
1f8
100
AcDbEntity
  8
Layer_1
 62
1
100
AcDbPolyline
 90
2
 70
1
 10
283.469536
 20
655.624810
 30
0.0
 10
283.469536
 20
655.624810
 30
0.0
  0
SPLINE
  5
1f9
100
AcDbEntity
  8
Layer_1
 62
1
100
AcDbSpline
 70
8
 71
3
 72
8
 73
4
 74
0
 40
0
 40
0
 40
0
 40
0
 40
1
 40
1
 40
1
 40
1
 10
307.991016
 20
655.624810
 30
0.0
 10
313.355360
 20
655.624810
 30
0.0
 10
317.710024
 20
651.270154
 30
0.0
 10
317.710024
 20
645.905770
 30
0.0
  0
SPLINE
  5
1fa
100
AcDbEntity
  8
Layer_1
 62
1
100
AcDbSpline
 70
8
 71
3
 72
8
 73
4
 74
0
 40
0
 40
0
 40
0
 40
0
 40
1
 40
1
 40
1
 40
1
 10
317.710024
 20
645.905770
 30
0.0
 10
317.710024
 20
640.541410
 30
0.0
 10
313.355360
 20
636.186762
 30
0.0
 10
307.991016
 20
636.186762
 30
0.0
  0
SPLINE
  5
1fb
100
AcDbEntity
  8
Layer_1
 62
1
100
AcDbSpline
 70
8
 71
3
 72
8
 73
4
 74
0
 40
0
 40
0
 40
0
 40
0
 40
1
 40
1
 40
1
 40
1
 10
307.991016
 20
636.186762
 30
0.0
 10
302.626656
 20
636.186762
 30
0.0
 10
298.272008
 20
640.541410
 30
0.0
 10
298.272008
 20
645.905770
 30
0.0
  0
SPLINE
  5
1fc
100
AcDbEntity
  8
Layer_1
 62
1
100
AcDbSpline
 70
8
 71
3
 72
8
 73
4
 74
0
 40
0
 40
0
 40
0
 40
0
 40
1
 40
1
 40
1
 40
1
 10
298.272008
 20
645.905770
 30
0.0
 10
298.272008
 20
651.270154
 30
0.0
 10
302.626656
 20
655.624810
 30
0.0
 10
307.991016
 20
655.624810
 30
0.0
  0
LWPOLYLINE
  5
1fd
100
AcDbEntity
  8
Layer_1
 62
1
100
AcDbPolyline
 90
2
 70
1
 10
307.991016
 20
649.405786
 30
0.0
 10
307.991016
 20
649.405786
 30
0.0
  0
SPLINE
  5
1fe
100
AcDbEntity
  8
Layer_1
 62
1
100
AcDbSpline
 70
8
 71
3
 72
8
 73
4
 74
0
 40
0
 40
0
 40
0
 40
0
 40
1
 40
1
 40
1
 40
1
 10
332.512496
 20
649.405786
 30
0.0
 10
334.444304
 20
649.405786
 30
0.0
 10
336.012496
 20
647.837594
 30
0.0
 10
336.012496
 20
645.905778
 30
0.0
  0
SPLINE
  5
1ff
100
AcDbEntity
  8
Layer_1
 62
1
100
AcDbSpline
 70
8
 71
3
 72
8
 73
4
 74
0
 40
0
 40
0
 40
0
 40
0
 40
1
 40
1
 40
1
 40
1
 10
336.012496
 20
645.905778
 30
0.0
 10
336.012496
 20
643.973970
 30
0.0
 10
334.444304
 20
642.405778
 30
0.0
 10
332.512496
 20
642.405778
 30
0.0
  0
SPLINE
  5
200
100
AcDbEntity
  8
Layer_1
 62
1
100
AcDbSpline
 70
8
 71
3
 72
8
 73
4
 74
0
 40
0
 40
0
 40
0
 40
0
 40
1
 40
1
 40
1
 40
1
 10
332.512496
 20
642.405778
 30
0.0
 10
330.580688
 20
642.405778
 30
0.0
 10
329.012496
 20
643.973970
 30
0.0
 10
329.012496
 20
645.905778
 30
0.0
  0
SPLINE
  5
201
100
AcDbEntity
  8
Layer_1
 62
1
100
AcDbSpline
 70
8
 71
3
 72
8
 73
4
 74
0
 40
0
 40
0
 40
0
 40
0
 40
1
 40
1
 40
1
 40
1
 10
329.012496
 20
645.905778
 30
0.0
 10
329.012496
 20
647.837594
 30
0.0
 10
330.580688
 20
649.405786
 30
0.0
 10
332.512496
 20
649.405786
 30
0.0
  0
LWPOLYLINE
  5
202
100
AcDbEntity
  8
Layer_1
 62
1
100
AcDbPolyline
 90
2
 70
1
 10
307.991016
 20
655.624810
 30
0.0
 10
307.991016
 20
655.624810
 30
0.0
  0
SPLINE
  5
203
100
AcDbEntity
  8
Layer_1
 62
1
100
AcDbSpline
 70
8
 71
3
 72
8
 73
4
 74
0
 40
0
 40
0
 40
0
 40
0
 40
1
 40
1
 40
1
 40
1
 10
332.512496
 20
655.624810
 30
0.0
 10
337.876840
 20
655.624810
 30
0.0
 10
342.231504
 20
651.270154
 30
0.0
 10
342.231504
 20
645.905770
 30
0.0
  0
SPLINE
  5
204
100
AcDbEntity
  8
Layer_1
 62
1
100
AcDbSpline
 70
8
 71
3
 72
8
 73
4
 74
0
 40
0
 40
0
 40
0
 40
0
 40
1
 40
1
 40
1
 40
1
 10
342.231504
 20
645.905770
 30
0.0
 10
342.231504
 20
640.541410
 30
0.0
 10
337.876840
 20
636.186762
 30
0.0
 10
332.512496
 20
636.186762
 30
0.0
  0
SPLINE
  5
205
100
AcDbEntity
  8
Layer_1
 62
1
100
AcDbSpline
 70
8
 71
3
 72
8
 73
4
 74
0
 40
0
 40
0
 40
0
 40
0
 40
1
 40
1
 40
1
 40
1
 10
332.512496
 20
636.186762
 30
0.0
 10
327.148136
 20
636.186762
 30
0.0
 10
322.793488
 20
640.541410
 30
0.0
 10
322.793488
 20
645.905770
 30
0.0
  0
SPLINE
  5
206
100
AcDbEntity
  8
Layer_1
 62
1
100
AcDbSpline
 70
8
 71
3
 72
8
 73
4
 74
0
 40
0
 40
0
 40
0
 40
0
 40
1
 40
1
 40
1
 40
1
 10
322.793488
 20
645.905770
 30
0.0
 10
322.793488
 20
651.270154
 30
0.0
 10
327.148136
 20
655.624810
 30
0.0
 10
332.512496
 20
655.624810
 30
0.0
  0
LWPOLYLINE
  5
207
100
AcDbEntity
  8
Layer_1
 62
1
100
AcDbPolyline
 90
2
 70
1
 10
332.512496
 20
649.405786
 30
0.0
 10
332.512496
 20
649.405786
 30
0.0
  0
SPLINE
  5
208
100
AcDbEntity
  8
Layer_1
 62
1
100
AcDbSpline
 70
8
 71
3
 72
8
 73
4
 74
0
 40
0
 40
0
 40
0
 40
0
 40
1
 40
1
 40
1
 40
1
 10
357.033976
 20
649.405786
 30
0.0
 10
358.965784
 20
649.405786
 30
0.0
 10
360.533976
 20
647.837594
 30
0.0
 10
360.533976
 20
645.905778
 30
0.0
  0
SPLINE
  5
209
100
AcDbEntity
  8
Layer_1
 62
1
100
AcDbSpline
 70
8
 71
3
 72
8
 73
4
 74
0
 40
0
 40
0
 40
0
 40
0
 40
1
 40
1
 40
1
 40
1
 10
360.533976
 20
645.905778
 30
0.0
 10
360.533976
 20
643.973970
 30
0.0
 10
358.965784
 20
642.405778
 30
0.0
 10
357.033976
 20
642.405778
 30
0.0
  0
SPLINE
  5
20a
100
AcDbEntity
  8
Layer_1
 62
1
100
AcDbSpline
 70
8
 71
3
 72
8
 73
4
 74
0
 40
0
 40
0
 40
0
 40
0
 40
1
 40
1
 40
1
 40
1
 10
357.033976
 20
642.405778
 30
0.0
 10
355.102168
 20
642.405778
 30
0.0
 10
353.533976
 20
643.973970
 30
0.0
 10
353.533976
 20
645.905778
 30
0.0
  0
SPLINE
  5
20b
100
AcDbEntity
  8
Layer_1
 62
1
100
AcDbSpline
 70
8
 71
3
 72
8
 73
4
 74
0
 40
0
 40
0
 40
0
 40
0
 40
1
 40
1
 40
1
 40
1
 10
353.533976
 20
645.905778
 30
0.0
 10
353.533976
 20
647.837594
 30
0.0
 10
355.102168
 20
649.405786
 30
0.0
 10
357.033976
 20
649.405786
 30
0.0
  0
LWPOLYLINE
  5
20c
100
AcDbEntity
  8
Layer_1
 62
1
100
AcDbPolyline
 90
2
 70
1
 10
332.512496
 20
655.624810
 30
0.0
 10
332.512496
 20
655.624810
 30
0.0
  0
SPLINE
  5
20d
100
AcDbEntity
  8
Layer_1
 62
1
100
AcDbSpline
 70
8
 71
3
 72
8
 73
4
 74
0
 40
0
 40
0
 40
0
 40
0
 40
1
 40
1
 40
1
 40
1
 10
357.033976
 20
655.624810
 30
0.0
 10
362.398320
 20
655.624810
 30
0.0
 10
366.752984
 20
651.270154
 30
0.0
 10
366.752984
 20
645.905770
 30
0.0
  0
SPLINE
  5
20e
100
AcDbEntity
  8
Layer_1
 62
1
100
AcDbSpline
 70
8
 71
3
 72
8
 73
4
 74
0
 40
0
 40
0
 40
0
 40
0
 40
1
 40
1
 40
1
 40
1
 10
366.752984
 20
645.905770
 30
0.0
 10
366.752984
 20
640.541410
 30
0.0
 10
362.398320
 20
636.186762
 30
0.0
 10
357.033976
 20
636.186762
 30
0.0
  0
SPLINE
  5
20f
100
AcDbEntity
  8
Layer_1
 62
1
100
AcDbSpline
 70
8
 71
3
 72
8
 73
4
 74
0
 40
0
 40
0
 40
0
 40
0
 40
1
 40
1
 40
1
 40
1
 10
357.033976
 20
636.186762
 30
0.0
 10
351.669616
 20
636.186762
 30
0.0
 10
347.314968
 20
640.541410
 30
0.0
 10
347.314968
 20
645.905770
 30
0.0
  0
SPLINE
  5
210
100
AcDbEntity
  8
Layer_1
 62
1
100
AcDbSpline
 70
8
 71
3
 72
8
 73
4
 74
0
 40
0
 40
0
 40
0
 40
0
 40
1
 40
1
 40
1
 40
1
 10
347.314968
 20
645.905770
 30
0.0
 10
347.314968
 20
651.270154
 30
0.0
 10
351.669616
 20
655.624810
 30
0.0
 10
357.033976
 20
655.624810
 30
0.0
  0
LWPOLYLINE
  5
211
100
AcDbEntity
  8
Layer_1
 62
1
100
AcDbPolyline
 90
2
 70
1
 10
357.033976
 20
649.405786
 30
0.0
 10
357.033976
 20
649.405786
 30
0.0
  0
SPLINE
  5
212
100
AcDbEntity
  8
Layer_1
 62
1
100
AcDbSpline
 70
8
 71
3
 72
8
 73
4
 74
0
 40
0
 40
0
 40
0
 40
0
 40
1
 40
1
 40
1
 40
1
 10
380.568824
 20
698.521556
 30
0.0
 10
382.500632
 20
698.521556
 30
0.0
 10
384.068824
 20
696.953364
 30
0.0
 10
384.068824
 20
695.021548
 30
0.0
  0
SPLINE
  5
213
100
AcDbEntity
  8
Layer_1
 62
1
100
AcDbSpline
 70
8
 71
3
 72
8
 73
4
 74
0
 40
0
 40
0
 40
0
 40
0
 40
1
 40
1
 40
1
 40
1
 10
384.068824
 20
695.021548
 30
0.0
 10
384.068824
 20
693.089740
 30
0.0
 10
382.500632
 20
691.521548
 30
0.0
 10
380.568824
 20
691.521548
 30
0.0
  0
SPLINE
  5
214
100
AcDbEntity
  8
Layer_1
 62
1
100
AcDbSpline
 70
8
 71
3
 72
8
 73
4
 74
0
 40
0
 40
0
 40
0
 40
0
 40
1
 40
1
 40
1
 40
1
 10
380.568824
 20
691.521548
 30
0.0
 10
378.637016
 20
691.521548
 30
0.0
 10
377.068824
 20
693.089740
 30
0.0
 10
377.068824
 20
695.021548
 30
0.0
  0
SPLINE
  5
215
100
AcDbEntity
  8
Layer_1
 62
1
100
AcDbSpline
 70
8
 71
3
 72
8
 73
4
 74
0
 40
0
 40
0
 40
0
 40
0
 40
1
 40
1
 40
1
 40
1
 10
377.068824
 20
695.021548
 30
0.0
 10
377.068824
 20
696.953364
 30
0.0
 10
378.637016
 20
698.521556
 30
0.0
 10
380.568824
 20
698.521556
 30
0.0
  0
LWPOLYLINE
  5
216
100
AcDbEntity
  8
Layer_1
 62
1
100
AcDbPolyline
 90
2
 70
1
 10
357.033976
 20
655.624810
 30
0.0
 10
357.033976
 20
655.624810
 30
0.0
  0
SPLINE
  5
217
100
AcDbEntity
  8
Layer_1
 62
1
100
AcDbSpline
 70
8
 71
3
 72
8
 73
4
 74
0
 40
0
 40
0
 40
0
 40
0
 40
1
 40
1
 40
1
 40
1
 10
380.568824
 20
704.740580
 30
0.0
 10
385.933168
 20
704.740580
 30
0.0
 10
390.287832
 20
700.385924
 30
0.0
 10
390.287832
 20
695.021540
 30
0.0
  0
SPLINE
  5
218
100
AcDbEntity
  8
Layer_1
 62
1
100
AcDbSpline
 70
8
 71
3
 72
8
 73
4
 74
0
 40
0
 40
0
 40
0
 40
0
 40
1
 40
1
 40
1
 40
1
 10
390.287832
 20
695.021540
 30
0.0
 10
390.287832
 20
689.657180
 30
0.0
 10
385.933168
 20
685.302532
 30
0.0
 10
380.568824
 20
685.302532
 30
0.0
  0
SPLINE
  5
219
100
AcDbEntity
  8
Layer_1
 62
1
100
AcDbSpline
 70
8
 71
3
 72
8
 73
4
 74
0
 40
0
 40
0
 40
0
 40
0
 40
1
 40
1
 40
1
 40
1
 10
380.568824
 20
685.302532
 30
0.0
 10
375.204464
 20
685.302532
 30
0.0
 10
370.849816
 20
689.657180
 30
0.0
 10
370.849816
 20
695.021540
 30
0.0
  0
SPLINE
  5
21a
100
AcDbEntity
  8
Layer_1
 62
1
100
AcDbSpline
 70
8
 71
3
 72
8
 73
4
 74
0
 40
0
 40
0
 40
0
 40
0
 40
1
 40
1
 40
1
 40
1
 10
370.849816
 20
695.021540
 30
0.0
 10
370.849816
 20
700.385924
 30
0.0
 10
375.204464
 20
704.740580
 30
0.0
 10
380.568824
 20
704.740580
 30
0.0
  0
LWPOLYLINE
  5
21b
100
AcDbEntity
  8
Layer_1
 62
1
100
AcDbPolyline
 90
2
 70
1
 10
380.568824
 20
698.521556
 30
0.0
 10
380.568824
 20
698.521556
 30
0.0
  0
SPLINE
  5
21c
100
AcDbEntity
  8
Layer_1
 62
1
100
AcDbSpline
 70
8
 71
3
 72
8
 73
4
 74
0
 40
0
 40
0
 40
0
 40
0
 40
1
 40
1
 40
1
 40
1
 10
380.568824
 20
674.000044
 30
0.0
 10
382.500632
 20
674.000044
 30
0.0
 10
384.068824
 20
672.431852
 30
0.0
 10
384.068824
 20
670.500036
 30
0.0
  0
SPLINE
  5
21d
100
AcDbEntity
  8
Layer_1
 62
1
100
AcDbSpline
 70
8
 71
3
 72
8
 73
4
 74
0
 40
0
 40
0
 40
0
 40
0
 40
1
 40
1
 40
1
 40
1
 10
384.068824
 20
670.500036
 30
0.0
 10
384.068824
 20
668.568228
 30
0.0
 10
382.500632
 20
667.000036
 30
0.0
 10
380.568824
 20
667.000036
 30
0.0
  0
SPLINE
  5
21e
100
AcDbEntity
  8
Layer_1
 62
1
100
AcDbSpline
 70
8
 71
3
 72
8
 73
4
 74
0
 40
0
 40
0
 40
0
 40
0
 40
1
 40
1
 40
1
 40
1
 10
380.568824
 20
667.000036
 30
0.0
 10
378.637016
 20
667.000036
 30
0.0
 10
377.068824
 20
668.568228
 30
0.0
 10
377.068824
 20
670.500036
 30
0.0
  0
SPLINE
  5
21f
100
AcDbEntity
  8
Layer_1
 62
1
100
AcDbSpline
 70
8
 71
3
 72
8
 73
4
 74
0
 40
0
 40
0
 40
0
 40
0
 40
1
 40
1
 40
1
 40
1
 10
377.068824
 20
670.500036
 30
0.0
 10
377.068824
 20
672.431852
 30
0.0
 10
378.637016
 20
674.000044
 30
0.0
 10
380.568824
 20
674.000044
 30
0.0
  0
LWPOLYLINE
  5
220
100
AcDbEntity
  8
Layer_1
 62
1
100
AcDbPolyline
 90
2
 70
1
 10
380.568824
 20
704.740580
 30
0.0
 10
380.568824
 20
704.740580
 30
0.0
  0
SPLINE
  5
221
100
AcDbEntity
  8
Layer_1
 62
1
100
AcDbSpline
 70
8
 71
3
 72
8
 73
4
 74
0
 40
0
 40
0
 40
0
 40
0
 40
1
 40
1
 40
1
 40
1
 10
380.568824
 20
680.219068
 30
0.0
 10
385.933168
 20
680.219068
 30
0.0
 10
390.287832
 20
675.864412
 30
0.0
 10
390.287832
 20
670.500028
 30
0.0
  0
SPLINE
  5
222
100
AcDbEntity
  8
Layer_1
 62
1
100
AcDbSpline
 70
8
 71
3
 72
8
 73
4
 74
0
 40
0
 40
0
 40
0
 40
0
 40
1
 40
1
 40
1
 40
1
 10
390.287832
 20
670.500028
 30
0.0
 10
390.287832
 20
665.135668
 30
0.0
 10
385.933168
 20
660.781020
 30
0.0
 10
380.568824
 20
660.781020
 30
0.0
  0
SPLINE
  5
223
100
AcDbEntity
  8
Layer_1
 62
1
100
AcDbSpline
 70
8
 71
3
 72
8
 73
4
 74
0
 40
0
 40
0
 40
0
 40
0
 40
1
 40
1
 40
1
 40
1
 10
380.568824
 20
660.781020
 30
0.0
 10
375.204464
 20
660.781020
 30
0.0
 10
370.849816
 20
665.135668
 30
0.0
 10
370.849816
 20
670.500028
 30
0.0
  0
SPLINE
  5
224
100
AcDbEntity
  8
Layer_1
 62
1
100
AcDbSpline
 70
8
 71
3
 72
8
 73
4
 74
0
 40
0
 40
0
 40
0
 40
0
 40
1
 40
1
 40
1
 40
1
 10
370.849816
 20
670.500028
 30
0.0
 10
370.849816
 20
675.864412
 30
0.0
 10
375.204464
 20
680.219068
 30
0.0
 10
380.568824
 20
680.219068
 30
0.0
  0
LWPOLYLINE
  5
225
100
AcDbEntity
  8
Layer_1
 62
1
100
AcDbPolyline
 90
2
 70
1
 10
380.568824
 20
674.000044
 30
0.0
 10
380.568824
 20
674.000044
 30
0.0
  0
SPLINE
  5
226
100
AcDbEntity
  8
Layer_1
 62
1
100
AcDbSpline
 70
8
 71
3
 72
8
 73
4
 74
0
 40
0
 40
0
 40
0
 40
0
 40
1
 40
1
 40
1
 40
1
 10
380.568824
 20
649.478532
 30
0.0
 10
382.500632
 20
649.478532
 30
0.0
 10
384.068824
 20
647.910340
 30
0.0
 10
384.068824
 20
645.978524
 30
0.0
  0
SPLINE
  5
227
100
AcDbEntity
  8
Layer_1
 62
1
100
AcDbSpline
 70
8
 71
3
 72
8
 73
4
 74
0
 40
0
 40
0
 40
0
 40
0
 40
1
 40
1
 40
1
 40
1
 10
384.068824
 20
645.978524
 30
0.0
 10
384.068824
 20
644.046716
 30
0.0
 10
382.500632
 20
642.478524
 30
0.0
 10
380.568824
 20
642.478524
 30
0.0
  0
SPLINE
  5
228
100
AcDbEntity
  8
Layer_1
 62
1
100
AcDbSpline
 70
8
 71
3
 72
8
 73
4
 74
0
 40
0
 40
0
 40
0
 40
0
 40
1
 40
1
 40
1
 40
1
 10
380.568824
 20
642.478524
 30
0.0
 10
378.637016
 20
642.478524
 30
0.0
 10
377.068824
 20
644.046716
 30
0.0
 10
377.068824
 20
645.978524
 30
0.0
  0
SPLINE
  5
229
100
AcDbEntity
  8
Layer_1
 62
1
100
AcDbSpline
 70
8
 71
3
 72
8
 73
4
 74
0
 40
0
 40
0
 40
0
 40
0
 40
1
 40
1
 40
1
 40
1
 10
377.068824
 20
645.978524
 30
0.0
 10
377.068824
 20
647.910340
 30
0.0
 10
378.637016
 20
649.478532
 30
0.0
 10
380.568824
 20
649.478532
 30
0.0
  0
LWPOLYLINE
  5
22a
100
AcDbEntity
  8
Layer_1
 62
1
100
AcDbPolyline
 90
2
 70
1
 10
380.568824
 20
680.219068
 30
0.0
 10
380.568824
 20
680.219068
 30
0.0
  0
SPLINE
  5
22b
100
AcDbEntity
  8
Layer_1
 62
1
100
AcDbSpline
 70
8
 71
3
 72
8
 73
4
 74
0
 40
0
 40
0
 40
0
 40
0
 40
1
 40
1
 40
1
 40
1
 10
380.568824
 20
655.697556
 30
0.0
 10
385.933168
 20
655.697556
 30
0.0
 10
390.287832
 20
651.342900
 30
0.0
 10
390.287832
 20
645.978516
 30
0.0
  0
SPLINE
  5
22c
100
AcDbEntity
  8
Layer_1
 62
1
100
AcDbSpline
 70
8
 71
3
 72
8
 73
4
 74
0
 40
0
 40
0
 40
0
 40
0
 40
1
 40
1
 40
1
 40
1
 10
390.287832
 20
645.978516
 30
0.0
 10
390.287832
 20
640.614156
 30
0.0
 10
385.933168
 20
636.259508
 30
0.0
 10
380.568824
 20
636.259508
 30
0.0
  0
SPLINE
  5
22d
100
AcDbEntity
  8
Layer_1
 62
1
100
AcDbSpline
 70
8
 71
3
 72
8
 73
4
 74
0
 40
0
 40
0
 40
0
 40
0
 40
1
 40
1
 40
1
 40
1
 10
380.568824
 20
636.259508
 30
0.0
 10
375.204464
 20
636.259508
 30
0.0
 10
370.849816
 20
640.614156
 30
0.0
 10
370.849816
 20
645.978516
 30
0.0
  0
SPLINE
  5
22e
100
AcDbEntity
  8
Layer_1
 62
1
100
AcDbSpline
 70
8
 71
3
 72
8
 73
4
 74
0
 40
0
 40
0
 40
0
 40
0
 40
1
 40
1
 40
1
 40
1
 10
370.849816
 20
645.978516
 30
0.0
 10
370.849816
 20
651.342900
 30
0.0
 10
375.204464
 20
655.697556
 30
0.0
 10
380.568824
 20
655.697556
 30
0.0
  0
LWPOLYLINE
  5
22f
100
AcDbEntity
  8
Layer_1
 62
1
100
AcDbPolyline
 90
2
 70
1
 10
380.568824
 20
649.478532
 30
0.0
 10
380.568824
 20
649.478532
 30
0.0
  0
SPLINE
  5
230
100
AcDbEntity
  8
Layer_1
 62
1
100
AcDbSpline
 70
8
 71
3
 72
8
 73
4
 74
0
 40
0
 40
0
 40
0
 40
0
 40
1
 40
1
 40
1
 40
1
 10
404.043744
 20
698.521556
 30
0.0
 10
405.975552
 20
698.521556
 30
0.0
 10
407.543744
 20
696.953364
 30
0.0
 10
407.543744
 20
695.021548
 30
0.0
  0
SPLINE
  5
231
100
AcDbEntity
  8
Layer_1
 62
1
100
AcDbSpline
 70
8
 71
3
 72
8
 73
4
 74
0
 40
0
 40
0
 40
0
 40
0
 40
1
 40
1
 40
1
 40
1
 10
407.543744
 20
695.021548
 30
0.0
 10
407.543744
 20
693.089740
 30
0.0
 10
405.975552
 20
691.521548
 30
0.0
 10
404.043744
 20
691.521548
 30
0.0
  0
SPLINE
  5
232
100
AcDbEntity
  8
Layer_1
 62
1
100
AcDbSpline
 70
8
 71
3
 72
8
 73
4
 74
0
 40
0
 40
0
 40
0
 40
0
 40
1
 40
1
 40
1
 40
1
 10
404.043744
 20
691.521548
 30
0.0
 10
402.111936
 20
691.521548
 30
0.0
 10
400.543744
 20
693.089740
 30
0.0
 10
400.543744
 20
695.021548
 30
0.0
  0
SPLINE
  5
233
100
AcDbEntity
  8
Layer_1
 62
1
100
AcDbSpline
 70
8
 71
3
 72
8
 73
4
 74
0
 40
0
 40
0
 40
0
 40
0
 40
1
 40
1
 40
1
 40
1
 10
400.543744
 20
695.021548
 30
0.0
 10
400.543744
 20
696.953364
 30
0.0
 10
402.111936
 20
698.521556
 30
0.0
 10
404.043744
 20
698.521556
 30
0.0
  0
LWPOLYLINE
  5
234
100
AcDbEntity
  8
Layer_1
 62
1
100
AcDbPolyline
 90
2
 70
1
 10
380.568824
 20
655.697556
 30
0.0
 10
380.568824
 20
655.697556
 30
0.0
  0
SPLINE
  5
235
100
AcDbEntity
  8
Layer_1
 62
1
100
AcDbSpline
 70
8
 71
3
 72
8
 73
4
 74
0
 40
0
 40
0
 40
0
 40
0
 40
1
 40
1
 40
1
 40
1
 10
404.043744
 20
704.740580
 30
0.0
 10
409.408088
 20
704.740580
 30
0.0
 10
413.762752
 20
700.385924
 30
0.0
 10
413.762752
 20
695.021540
 30
0.0
  0
SPLINE
  5
236
100
AcDbEntity
  8
Layer_1
 62
1
100
AcDbSpline
 70
8
 71
3
 72
8
 73
4
 74
0
 40
0
 40
0
 40
0
 40
0
 40
1
 40
1
 40
1
 40
1
 10
413.762752
 20
695.021540
 30
0.0
 10
413.762752
 20
689.657180
 30
0.0
 10
409.408088
 20
685.302532
 30
0.0
 10
404.043744
 20
685.302532
 30
0.0
  0
SPLINE
  5
237
100
AcDbEntity
  8
Layer_1
 62
1
100
AcDbSpline
 70
8
 71
3
 72
8
 73
4
 74
0
 40
0
 40
0
 40
0
 40
0
 40
1
 40
1
 40
1
 40
1
 10
404.043744
 20
685.302532
 30
0.0
 10
398.679384
 20
685.302532
 30
0.0
 10
394.324736
 20
689.657180
 30
0.0
 10
394.324736
 20
695.021540
 30
0.0
  0
SPLINE
  5
238
100
AcDbEntity
  8
Layer_1
 62
1
100
AcDbSpline
 70
8
 71
3
 72
8
 73
4
 74
0
 40
0
 40
0
 40
0
 40
0
 40
1
 40
1
 40
1
 40
1
 10
394.324736
 20
695.021540
 30
0.0
 10
394.324736
 20
700.385924
 30
0.0
 10
398.679384
 20
704.740580
 30
0.0
 10
404.043744
 20
704.740580
 30
0.0
  0
LWPOLYLINE
  5
239
100
AcDbEntity
  8
Layer_1
 62
1
100
AcDbPolyline
 90
2
 70
1
 10
404.043744
 20
698.521556
 30
0.0
 10
404.043744
 20
698.521556
 30
0.0
  0
SPLINE
  5
23a
100
AcDbEntity
  8
Layer_1
 62
1
100
AcDbSpline
 70
8
 71
3
 72
8
 73
4
 74
0
 40
0
 40
0
 40
0
 40
0
 40
1
 40
1
 40
1
 40
1
 10
404.043744
 20
674.000044
 30
0.0
 10
405.975552
 20
674.000044
 30
0.0
 10
407.543744
 20
672.431852
 30
0.0
 10
407.543744
 20
670.500036
 30
0.0
  0
SPLINE
  5
23b
100
AcDbEntity
  8
Layer_1
 62
1
100
AcDbSpline
 70
8
 71
3
 72
8
 73
4
 74
0
 40
0
 40
0
 40
0
 40
0
 40
1
 40
1
 40
1
 40
1
 10
407.543744
 20
670.500036
 30
0.0
 10
407.543744
 20
668.568228
 30
0.0
 10
405.975552
 20
667.000036
 30
0.0
 10
404.043744
 20
667.000036
 30
0.0
  0
SPLINE
  5
23c
100
AcDbEntity
  8
Layer_1
 62
1
100
AcDbSpline
 70
8
 71
3
 72
8
 73
4
 74
0
 40
0
 40
0
 40
0
 40
0
 40
1
 40
1
 40
1
 40
1
 10
404.043744
 20
667.000036
 30
0.0
 10
402.111936
 20
667.000036
 30
0.0
 10
400.543744
 20
668.568228
 30
0.0
 10
400.543744
 20
670.500036
 30
0.0
  0
SPLINE
  5
23d
100
AcDbEntity
  8
Layer_1
 62
1
100
AcDbSpline
 70
8
 71
3
 72
8
 73
4
 74
0
 40
0
 40
0
 40
0
 40
0
 40
1
 40
1
 40
1
 40
1
 10
400.543744
 20
670.500036
 30
0.0
 10
400.543744
 20
672.431852
 30
0.0
 10
402.111936
 20
674.000044
 30
0.0
 10
404.043744
 20
674.000044
 30
0.0
  0
LWPOLYLINE
  5
23e
100
AcDbEntity
  8
Layer_1
 62
1
100
AcDbPolyline
 90
2
 70
1
 10
404.043744
 20
704.740580
 30
0.0
 10
404.043744
 20
704.740580
 30
0.0
  0
SPLINE
  5
23f
100
AcDbEntity
  8
Layer_1
 62
1
100
AcDbSpline
 70
8
 71
3
 72
8
 73
4
 74
0
 40
0
 40
0
 40
0
 40
0
 40
1
 40
1
 40
1
 40
1
 10
404.043744
 20
680.219068
 30
0.0
 10
409.408088
 20
680.219068
 30
0.0
 10
413.762752
 20
675.864412
 30
0.0
 10
413.762752
 20
670.500028
 30
0.0
  0
SPLINE
  5
240
100
AcDbEntity
  8
Layer_1
 62
1
100
AcDbSpline
 70
8
 71
3
 72
8
 73
4
 74
0
 40
0
 40
0
 40
0
 40
0
 40
1
 40
1
 40
1
 40
1
 10
413.762752
 20
670.500028
 30
0.0
 10
413.762752
 20
665.135668
 30
0.0
 10
409.408088
 20
660.781020
 30
0.0
 10
404.043744
 20
660.781020
 30
0.0
  0
SPLINE
  5
241
100
AcDbEntity
  8
Layer_1
 62
1
100
AcDbSpline
 70
8
 71
3
 72
8
 73
4
 74
0
 40
0
 40
0
 40
0
 40
0
 40
1
 40
1
 40
1
 40
1
 10
404.043744
 20
660.781020
 30
0.0
 10
398.679384
 20
660.781020
 30
0.0
 10
394.324736
 20
665.135668
 30
0.0
 10
394.324736
 20
670.500028
 30
0.0
  0
SPLINE
  5
242
100
AcDbEntity
  8
Layer_1
 62
1
100
AcDbSpline
 70
8
 71
3
 72
8
 73
4
 74
0
 40
0
 40
0
 40
0
 40
0
 40
1
 40
1
 40
1
 40
1
 10
394.324736
 20
670.500028
 30
0.0
 10
394.324736
 20
675.864412
 30
0.0
 10
398.679384
 20
680.219068
 30
0.0
 10
404.043744
 20
680.219068
 30
0.0
  0
LWPOLYLINE
  5
243
100
AcDbEntity
  8
Layer_1
 62
1
100
AcDbPolyline
 90
2
 70
1
 10
404.043744
 20
674.000044
 30
0.0
 10
404.043744
 20
674.000044
 30
0.0
  0
SPLINE
  5
244
100
AcDbEntity
  8
Layer_1
 62
1
100
AcDbSpline
 70
8
 71
3
 72
8
 73
4
 74
0
 40
0
 40
0
 40
0
 40
0
 40
1
 40
1
 40
1
 40
1
 10
404.043744
 20
649.478532
 30
0.0
 10
405.975552
 20
649.478532
 30
0.0
 10
407.543744
 20
647.910340
 30
0.0
 10
407.543744
 20
645.978524
 30
0.0
  0
SPLINE
  5
245
100
AcDbEntity
  8
Layer_1
 62
1
100
AcDbSpline
 70
8
 71
3
 72
8
 73
4
 74
0
 40
0
 40
0
 40
0
 40
0
 40
1
 40
1
 40
1
 40
1
 10
407.543744
 20
645.978524
 30
0.0
 10
407.543744
 20
644.046716
 30
0.0
 10
405.975552
 20
642.478524
 30
0.0
 10
404.043744
 20
642.478524
 30
0.0
  0
SPLINE
  5
246
100
AcDbEntity
  8
Layer_1
 62
1
100
AcDbSpline
 70
8
 71
3
 72
8
 73
4
 74
0
 40
0
 40
0
 40
0
 40
0
 40
1
 40
1
 40
1
 40
1
 10
404.043744
 20
642.478524
 30
0.0
 10
402.111936
 20
642.478524
 30
0.0
 10
400.543744
 20
644.046716
 30
0.0
 10
400.543744
 20
645.978524
 30
0.0
  0
SPLINE
  5
247
100
AcDbEntity
  8
Layer_1
 62
1
100
AcDbSpline
 70
8
 71
3
 72
8
 73
4
 74
0
 40
0
 40
0
 40
0
 40
0
 40
1
 40
1
 40
1
 40
1
 10
400.543744
 20
645.978524
 30
0.0
 10
400.543744
 20
647.910340
 30
0.0
 10
402.111936
 20
649.478532
 30
0.0
 10
404.043744
 20
649.478532
 30
0.0
  0
LWPOLYLINE
  5
248
100
AcDbEntity
  8
Layer_1
 62
1
100
AcDbPolyline
 90
2
 70
1
 10
404.043744
 20
680.219068
 30
0.0
 10
404.043744
 20
680.219068
 30
0.0
  0
SPLINE
  5
249
100
AcDbEntity
  8
Layer_1
 62
1
100
AcDbSpline
 70
8
 71
3
 72
8
 73
4
 74
0
 40
0
 40
0
 40
0
 40
0
 40
1
 40
1
 40
1
 40
1
 10
404.043744
 20
655.697556
 30
0.0
 10
409.408088
 20
655.697556
 30
0.0
 10
413.762752
 20
651.342900
 30
0.0
 10
413.762752
 20
645.978516
 30
0.0
  0
SPLINE
  5
24a
100
AcDbEntity
  8
Layer_1
 62
1
100
AcDbSpline
 70
8
 71
3
 72
8
 73
4
 74
0
 40
0
 40
0
 40
0
 40
0
 40
1
 40
1
 40
1
 40
1
 10
413.762752
 20
645.978516
 30
0.0
 10
413.762752
 20
640.614156
 30
0.0
 10
409.408088
 20
636.259508
 30
0.0
 10
404.043744
 20
636.259508
 30
0.0
  0
SPLINE
  5
24b
100
AcDbEntity
  8
Layer_1
 62
1
100
AcDbSpline
 70
8
 71
3
 72
8
 73
4
 74
0
 40
0
 40
0
 40
0
 40
0
 40
1
 40
1
 40
1
 40
1
 10
404.043744
 20
636.259508
 30
0.0
 10
398.679384
 20
636.259508
 30
0.0
 10
394.324736
 20
640.614156
 30
0.0
 10
394.324736
 20
645.978516
 30
0.0
  0
SPLINE
  5
24c
100
AcDbEntity
  8
Layer_1
 62
1
100
AcDbSpline
 70
8
 71
3
 72
8
 73
4
 74
0
 40
0
 40
0
 40
0
 40
0
 40
1
 40
1
 40
1
 40
1
 10
394.324736
 20
645.978516
 30
0.0
 10
394.324736
 20
651.342900
 30
0.0
 10
398.679384
 20
655.697556
 30
0.0
 10
404.043744
 20
655.697556
 30
0.0
  0
LWPOLYLINE
  5
24d
100
AcDbEntity
  8
Layer_1
 62
1
100
AcDbPolyline
 90
2
 70
1
 10
404.043744
 20
649.478532
 30
0.0
 10
404.043744
 20
649.478532
 30
0.0
  0
SPLINE
  5
24e
100
AcDbEntity
  8
Layer_1
 62
1
100
AcDbSpline
 70
8
 71
3
 72
8
 73
4
 74
0
 40
0
 40
0
 40
0
 40
0
 40
1
 40
1
 40
1
 40
1
 10
261.819584
 20
741.938064
 30
0.0
 10
263.751392
 20
741.938064
 30
0.0
 10
265.319584
 20
740.369880
 30
0.0
 10
265.319584
 20
738.438064
 30
0.0
  0
SPLINE
  5
24f
100
AcDbEntity
  8
Layer_1
 62
1
100
AcDbSpline
 70
8
 71
3
 72
8
 73
4
 74
0
 40
0
 40
0
 40
0
 40
0
 40
1
 40
1
 40
1
 40
1
 10
265.319584
 20
738.438064
 30
0.0
 10
265.319584
 20
736.506256
 30
0.0
 10
263.751392
 20
734.938064
 30
0.0
 10
261.819584
 20
734.938064
 30
0.0
  0
SPLINE
  5
250
100
AcDbEntity
  8
Layer_1
 62
1
100
AcDbSpline
 70
8
 71
3
 72
8
 73
4
 74
0
 40
0
 40
0
 40
0
 40
0
 40
1
 40
1
 40
1
 40
1
 10
261.819584
 20
734.938064
 30
0.0
 10
259.887776
 20
734.938064
 30
0.0
 10
258.319584
 20
736.506256
 30
0.0
 10
258.319584
 20
738.438064
 30
0.0
  0
SPLINE
  5
251
100
AcDbEntity
  8
Layer_1
 62
1
100
AcDbSpline
 70
8
 71
3
 72
8
 73
4
 74
0
 40
0
 40
0
 40
0
 40
0
 40
1
 40
1
 40
1
 40
1
 10
258.319584
 20
738.438064
 30
0.0
 10
258.319584
 20
740.369880
 30
0.0
 10
259.887776
 20
741.938064
 30
0.0
 10
261.819584
 20
741.938064
 30
0.0
  0
LWPOLYLINE
  5
252
100
AcDbEntity
  8
Layer_1
 62
1
100
AcDbPolyline
 90
2
 70
1
 10
404.043744
 20
655.697556
 30
0.0
 10
404.043744
 20
655.697556
 30
0.0
  0
SPLINE
  5
253
100
AcDbEntity
  8
Layer_1
 62
1
100
AcDbSpline
 70
8
 71
3
 72
8
 73
4
 74
0
 40
0
 40
0
 40
0
 40
0
 40
1
 40
1
 40
1
 40
1
 10
476.319592
 20
741.938064
 30
0.0
 10
478.251432
 20
741.938064
 30
0.0
 10
479.794552
 20
740.369880
 30
0.0
 10
479.794552
 20
738.438064
 30
0.0
  0
SPLINE
  5
254
100
AcDbEntity
  8
Layer_1
 62
1
100
AcDbSpline
 70
8
 71
3
 72
8
 73
4
 74
0
 40
0
 40
0
 40
0
 40
0
 40
1
 40
1
 40
1
 40
1
 10
479.794552
 20
738.438064
 30
0.0
 10
479.794552
 20
736.506256
 30
0.0
 10
478.251432
 20
734.938064
 30
0.0
 10
476.319592
 20
734.938064
 30
0.0
  0
SPLINE
  5
255
100
AcDbEntity
  8
Layer_1
 62
1
100
AcDbSpline
 70
8
 71
3
 72
8
 73
4
 74
0
 40
0
 40
0
 40
0
 40
0
 40
1
 40
1
 40
1
 40
1
 10
476.319592
 20
734.938064
 30
0.0
 10
474.387752
 20
734.938064
 30
0.0
 10
472.819592
 20
736.506256
 30
0.0
 10
472.819592
 20
738.438064
 30
0.0
  0
SPLINE
  5
256
100
AcDbEntity
  8
Layer_1
 62
1
100
AcDbSpline
 70
8
 71
3
 72
8
 73
4
 74
0
 40
0
 40
0
 40
0
 40
0
 40
1
 40
1
 40
1
 40
1
 10
472.819592
 20
738.438064
 30
0.0
 10
472.819592
 20
740.369880
 30
0.0
 10
474.387752
 20
741.938064
 30
0.0
 10
476.319592
 20
741.938064
 30
0.0
  0
LWPOLYLINE
  5
257
100
AcDbEntity
  8
Layer_1
 62
1
100
AcDbPolyline
 90
2
 70
1
 10
261.819584
 20
741.938064
 30
0.0
 10
261.819584
 20
741.938064
 30
0.0
  0
LWPOLYLINE
  5
258
100
AcDbEntity
  8
Layer_1
 62
1
100
AcDbPolyline
 90
2
 70
1
 10
476.319592
 20
741.938064
 30
0.0
 10
476.319592
 20
741.938064
 30
0.0
  0
ENDSEC
  0
SECTION
  2
OBJECTS
  0
DICTIONARY
  5
C
330
0
100
AcDbDictionary
  3
ACAD_GROUP
350
D
  3
ACAD_MLINESTYLE
350
17
  0
DICTIONARY
  5
D
330
C
100
AcDbDictionary
  0
DICTIONARY
  5
1A
330
C
100
AcDbDictionary
  0
DICTIONARY
  5
17
330
C
100
AcDbDictionary
  3
STANDARD
350
18
  0
DICTIONARY
  5
19
330
C
100
AcDbDictionary
  0
ENDSEC
  0
EOF
